<svg viewBox="0 0 1003 800" xmlns="http://www.w3.org/2000/svg">
    <style>
        <![CDATA[:root>svg{display:none}:root>svg:target{display:block}]]>
    </style>
    <svg viewBox="0 0 16 16" id="arrow-down" xmlns="http://www.w3.org/2000/svg">
        <path d="m12 6-4 4-4-4"/>
    </svg>
    <svg viewBox="0 0 40 40" id="ball" xmlns="http://www.w3.org/2000/svg">
        <path d="M20 0C8.95 0 0 8.95 0 20s8.95 20 20 20 20-8.95 20-20S31.05 0 20 0Zm0 1.663c2.475 0 4.875.487 7.137 1.437a18.27 18.27 0 0 1 5.825 3.925c1.688 1.688 3 3.65 3.925 5.825.163.388.313.787.45 1.188-12.325-.1-19.675-2.25-23.7-4.063-3.537-1.6-5.175-3.212-5.687-3.8A18.057 18.057 0 0 1 12.863 3.1 18.338 18.338 0 0 1 20 1.662ZM6.75 7.338c.7.775 2.463 2.437 6.012 4.074 2.738 1.263 6 2.263 9.713 2.975 4.5.863 9.663 1.313 15.362 1.338a18.1 18.1 0 0 1 .5 4.287 18.88 18.88 0 0 1-.5 4.288c-4.05-1.675-8.412-3-12.987-3.95a83.521 83.521 0 0 0-12-1.6c-5.55-.35-9.613-.087-11.137.05.137-2.038.6-4.025 1.4-5.913a17.871 17.871 0 0 1 3.637-5.55Zm13.25 31c-2.475 0-4.875-.488-7.137-1.438A18.001 18.001 0 0 1 9.5 35.038a34.726 34.726 0 0 1 5.262-1.05c3.638-.438 9.15-.538 15.425 1.262a18.39 18.39 0 0 1-3.05 1.65A18.338 18.338 0 0 1 20 38.338Zm12.962-5.376c-.362.363-.737.713-1.125 1.038a40.896 40.896 0 0 0-9.287-1.837 40.131 40.131 0 0 0-8.038.175c-3.15.387-5.45 1.05-6.587 1.437-.3-.262-.587-.538-.875-.813a18.142 18.142 0 0 1-3.925-5.825 18.28 18.28 0 0 1-1.438-6.687c1.288-.113 5.45-.425 11.1-.063 6.163.388 15.376 1.663 24.588 5.5-.138.425-.3.838-.475 1.238-.925 2.2-2.25 4.15-3.938 5.837Z"/>
    </svg>
    <svg viewBox="0 0 40 40" id="bord" xmlns="http://www.w3.org/2000/svg">
        <path d="m39.75 12.018-1.762-1.762a.882.882 0 0 0-.325-.2c.55-1.45.825-2.637.962-3.5.337-2.112.1-3.812-.637-4.55-.65-.65-1.863-.787-2.763-.787-1.1 0-2.875.2-5.287 1.112a.792.792 0 0 0-.2-.325L27.975.244a.83.83 0 0 0-1.175 0L23.263 3.78a.83.83 0 0 0 0 1.175l.612.613a41.65 41.65 0 0 0-2.962 2.224c-3.375 2.763-6.725 6.313-9.95 10.55a93.149 93.149 0 0 0-2.812 3.913l-1.1-1.113a.843.843 0 0 0-.587-.25.793.793 0 0 0-.588.25L2.34 24.68a.843.843 0 0 0-.25.588.79.79 0 0 0 .25.587l1.76 1.763c.138.137.3.212.475.237a131.735 131.735 0 0 0-4.362 7.988c-.663 1.324.375 2.387.937 2.962l.013.013c.6.587 1.25 1.15 2.1 1.15.3 0 .587-.076.875-.213a131.055 131.055 0 0 0 7.987-4.362c.025.175.1.337.237.475l1.763 1.762c.162.162.375.25.587.25a.835.835 0 0 0 .588-.25l3.537-3.537a.867.867 0 0 0 .25-.588.793.793 0 0 0-.25-.587L17.75 31.83c5.237-3.562 9.6-7.275 13.037-11.1 1.462-1.637 2.662-3.174 3.637-4.624l.613.612c.162.163.375.25.587.25a.835.835 0 0 0 .588-.25l3.537-3.537c.15-.15.25-.375.25-.588a.786.786 0 0 0-.25-.575ZM7.051 23.506 5.876 24.68a.832.832 0 0 0 .238-.587.793.793 0 0 0-.25-.587l.587-.588.6.588ZM4.69 24.68c.15.15.362.25.587.25a.793.793 0 0 0 .588-.25L4.69 25.855l-.588-.587.588-.588Zm10.024 11.2-.587-.587 1.175-1.175a.843.843 0 0 0-.25.587c0 .225.087.438.25.588l-.588.587Zm1.763-1.775a.843.843 0 0 0-.588-.25.793.793 0 0 0-.587.25l1.175-1.175.587.588-.587.587Zm10.9-32.111.587.587-1.2 1.2a.85.85 0 0 0 .275-.612.793.793 0 0 0-.25-.588l.587-.587Zm-2.35 2.362.587-.587a.843.843 0 0 0 .8.225c-.375.2-.738.425-1.113.65l-.274-.288Zm4.462 15.325C23.55 26.28 14.763 32.53 3.376 38.28c-.075.038-.112.038-.125.038-.237 0-.737-.5-.925-.675-.762-.788-.687-.925-.637-1.05 3.337-6.613 6.9-12.425 10.574-17.262 3.15-4.138 6.4-7.588 9.675-10.275 7.025-5.75 11.925-6.2 13.262-6.2 1.05 0 1.513.225 1.588.3.112.125.512 1.05.162 3.163-.362 2.324-1.85 7.124-7.462 13.362Zm6.137-4.725-.275-.275c.238-.388.45-.75.65-1.125-.025.075-.025.137-.025.225 0 .225.088.437.25.587l-.6.588Zm1.775-1.763a.843.843 0 0 0-.587-.25.83.83 0 0 0-.613.275l1.2-1.2.588.588-.588.587Z"/>
        <path d="M31.5 5.28a.837.837 0 1 0 0 1.675.837.837 0 0 0 0-1.674Zm2.363 2.364a.838.838 0 1 0 0 1.675.838.838 0 0 0 0-1.675Zm-4.713 0a.838.838 0 1 0 .838.837.846.846 0 0 0-.838-.837Zm2.35 2.362a.837.837 0 1 0 .838.837.83.83 0 0 0-.838-.837ZM10.588 26.205a.837.837 0 1 0 0 1.675.837.837 0 0 0 0-1.675Zm2.362 2.35a.838.838 0 1 0 .838.837.854.854 0 0 0-.837-.837Zm-4.724 0a.838.838 0 1 0 0 1.675.838.838 0 0 0 0-1.675Zm2.362 2.363a.837.837 0 1 0 0 1.675.837.837 0 0 0 0-1.675Z"/>
    </svg>
    <svg viewBox="0 0 18 24" id="cart" xmlns="http://www.w3.org/2000/svg">
        <path d="M17.129 6.556h-3.048v-1.17C14.08 2.516 11.787.204 9 .204c-2.787 0-5.08 2.312-5.08 5.18v1.171H.87a.722.722 0 0 0-.726.732v14.634a1.89 1.89 0 0 0 1.887 1.902h13.936a1.892 1.892 0 0 0 1.887-1.902V7.288c0-.41-.32-.732-.726-.732h.001Zm-11.758-1.2C5.371 3.307 6.997 1.64 9 1.64s3.629 1.668 3.629 3.717v1.17H5.371v-1.17Zm10.597 17.005H2.032a.448.448 0 0 1-.435-.439V8.02h2.322v2.04c0 .41.32.73.726.73a.723.723 0 0 0 .726-.73V8.02h7.258v2.04c0 .41.32.73.726.73a.723.723 0 0 0 .726-.73V8.02h2.322v13.902a.448.448 0 0 1-.435.44Z"/>
    </svg>
    <svg viewBox="0 0 40 40" id="charger" xmlns="http://www.w3.org/2000/svg">
        <path d="M35.348 8.328V6.665a.838.838 0 0 0-1.676 0v1.663H32.01V6.665a.838.838 0 0 0-1.675 0v1.663H28.67v2.5a4.184 4.184 0 0 0 3.338 4.09v14.254c0 1.375-1.125 2.5-2.5 2.5a2.508 2.508 0 0 1-2.501-2.5V1.663c0-.925-.75-1.663-1.663-1.663H5.339c-.926 0-1.663.75-1.663 1.663v33.335c-.926 0-1.676.75-1.676 1.663V40h26.67v-3.339c0-.925-.75-1.663-1.662-1.663v-2.5a4.162 4.162 0 0 0 6.665-3.326V14.917a4.173 4.173 0 0 0 3.338-4.089v-2.5h-1.663ZM25.345 1.65v15.004H5.339V1.651h20.006Zm1.663 36.686H3.663v-1.663h23.345v1.663Zm-21.67-3.339V18.331h20.007v16.667H5.339Zm30.01-24.17a2.508 2.508 0 0 1-2.5 2.501 2.508 2.508 0 0 1-2.502-2.5V9.99h5.002v.837Z"/>
        <path d="M16.805 25.208a.83.83 0 0 0-1.176 0l-1.175 1.176-2.363-2.364a.83.83 0 1 0-1.176 1.176l2.951 2.95a.83.83 0 0 0 1.176 0l1.175-1.175 2.363 2.363a.83.83 0 1 0 1.176-1.175l-2.951-2.95Z"/>
    </svg>
    <svg viewBox="0 0 323.681 323.681" xml:space="preserve" id="conection" xmlns="http://www.w3.org/2000/svg">
        <path d="M221.775 271.023a2.165 2.165 0 0 1-.012-.041l-24.807-85.932c36.571-14.345 60.736-49.431 60.736-89.198C257.693 42.999 214.694 0 161.84 0S65.988 42.999 65.988 95.852c0 20.862 6.588 40.696 19.05 57.359 10.634 14.217 25.256 25.338 41.687 31.839l-11.677 40.448-.013.045-13.117 45.44a2.165 2.165 0 0 0-.012.041l-11.882 41.159a9 9 0 0 0 6.15 11.143 8.998 8.998 0 0 0 11.143-6.151l9.96-34.503h89.126l9.96 34.503a9.003 9.003 0 0 0 8.643 6.506 9 9 0 0 0 8.65-11.498l-11.881-41.16zM170.487 93.356a9 9 0 0 0-17.292 0l-10.258 35.535c-11.677-6.693-19.156-19.244-19.156-33.039 0-20.987 17.074-38.061 38.061-38.061s38.061 17.074 38.061 38.061c0 13.911-7.45 26.387-19.152 33.053l-10.264-35.549zm-8.647 34.946 26.237 90.886h-52.474l26.237-90.886zm-77.852-32.45C83.988 52.924 118.913 18 161.84 18s77.853 34.924 77.853 77.852c0 31.73-18.932 59.795-47.752 71.822l-6.104-21.143c19.438-9.164 32.063-28.706 32.063-50.679 0-30.912-25.148-56.061-56.061-56.061S105.78 64.94 105.78 95.852c0 21.793 12.676 41.481 32.067 50.669l-6.106 21.151c-28.841-12.016-47.753-40.012-47.753-71.82zm38.486 168.819 7.934-27.483h62.866l7.934 27.483h-78.734z"/>
    </svg>
    <svg viewBox="0 0 40 40" id="deck" xmlns="http://www.w3.org/2000/svg">
        <path d="M38.158 2.875a7.35 7.35 0 0 1-.45-.525.668.668 0 0 0-.162-.163 7.742 7.742 0 0 1-.538-.462C36.208 1 35.096 0 33.133 0c-1.862 0-4.162.925-7.025 2.825-3.362 2.225-7.512 5.812-12.537 10.837-4.963 4.963-8.6 9.213-10.825 12.613-1.9 2.925-2.825 5.3-2.825 7.263 0 2.287 1.25 3.525 2.087 4.35.838.837 2.1 2.112 4.375 2.112 1.95 0 4.313-.925 7.225-2.825 3.388-2.212 7.613-5.837 12.55-10.775 7.575-7.575 11.825-13.075 13.2-17.012 1.313-3.713-.2-5.4-1.2-6.513Zm-.362 5.938c-1.275 3.65-5.525 9.1-12.813 16.387-8.712 8.7-14.975 13.113-18.612 13.113-1.588 0-2.45-.863-3.2-1.613-.9-.9-1.588-1.7-1.6-3.175-.013-3.662 4.425-9.95 13.162-18.7C23.546 6.012 29.658 1.65 33.121 1.65c1.325 0 2.05.663 2.75 1.3.187.175.375.337.562.487.15.188.3.363.475.55.913 1.013 1.863 2.063.888 4.825Z"/>
        <path d="M20.758 25.525A4.109 4.109 0 0 0 18.821 23a3.759 3.759 0 0 0-.863-.375 10.73 10.73 0 0 0-1.3-.875c-1.712-.988-3.2-1.85-4.662-1.85-1.313 0-2.388.712-3.2 2.125-.938 1.612-.9 3.062.087 4.312.8 1.013 2.163 1.8 3.6 2.625.463.263.938.5 1.4.688a4.203 4.203 0 0 0 2.837 1.125 4.157 4.157 0 0 0 3.6-2.075s0-.013.013-.013a.506.506 0 0 0 .063-.112 4.11 4.11 0 0 0 .362-3.05Zm-4.025-1.413c.438 0 .863.113 1.25.338a2.52 2.52 0 0 1 1.163 1.512 2.504 2.504 0 0 1-2.413 3.15 2.47 2.47 0 0 1-1.25-.337 2.52 2.52 0 0 1-1.162-1.513 2.468 2.468 0 0 1 .25-1.9 2.489 2.489 0 0 1 2.162-1.25Zm-4.85 2.563.05-.1a.844.844 0 0 0-.3-1.138.84.84 0 0 0-1.1.238c-.125-.125-.25-.25-.35-.375-.412-.513-.687-1.175.05-2.45.663-1.15 1.288-1.288 1.75-1.288a3 3 0 0 1 .838.138c-.213.4-.075.9.312 1.125a.82.82 0 0 0 .413.112c.287 0 .562-.15.725-.412l.087-.15c.238.125.488.262.725.4a4.19 4.19 0 0 0-1.975 1.75 4.055 4.055 0 0 0-.525 2.575c-.237-.138-.475-.288-.7-.425Zm17.85-12.85c-.187-.475-.425-.95-.687-1.413-1.3-2.25-2.525-4.375-4.713-4.375-.7 0-1.425.225-2.225.675-1.612.938-2.312 2.2-2.075 3.775.188 1.275.975 2.638 1.8 4.075.263.463.563.9.875 1.3a4.174 4.174 0 0 0 3.987 2.95c.726 0 1.45-.187 2.076-.562l.112-.075c1.9-1.175 2.538-3.675 1.413-5.613a4.6 4.6 0 0 0-.563-.737Zm-.887 1.587a2.507 2.507 0 0 1-.913 3.413 2.437 2.437 0 0 1-1.25.337 2.488 2.488 0 0 1-2.162-1.25 2.46 2.46 0 0 1-.25-1.9 2.451 2.451 0 0 1 1.162-1.512 2.437 2.437 0 0 1 1.25-.338c.888 0 1.713.475 2.163 1.25Zm-5.913-5.25c.525-.3.988-.462 1.388-.462.512 0 .962.262 1.425.762a.84.84 0 0 0-.238 1.1.839.839 0 0 0 1.138.3l.087-.05c.138.225.288.463.438.713-.163-.025-.325-.025-.5-.025-.725 0-1.45.187-2.075.562a4.109 4.109 0 0 0-1.75 1.963c-.138-.263-.275-.5-.4-.725l.137-.088a.822.822 0 0 0 .3-1.137.844.844 0 0 0-1.125-.313c-.337-1.175-.025-1.9 1.175-2.6Z"/>
    </svg>
    <svg viewBox="0 0 40 40" id="display" xmlns="http://www.w3.org/2000/svg">
        <path d="M38.35 5H1.662C.75 5 0 5.737 0 6.663v23.344c0 .926.75 1.663 1.663 1.663h11.666v1.663h-3.326a.838.838 0 0 0 0 1.676H30.01a.838.838 0 0 0 0-1.675h-3.338V31.67h11.666c.925 0 1.663-.75 1.663-1.663V6.663A1.644 1.644 0 0 0 38.35 5ZM1.662 6.663h36.674v20.006H1.663V6.663Zm23.345 26.67H15.005v-1.662h10.003v1.663Zm-5.002-3.325H1.663v-1.663h36.686v1.663H20.006Z"/>
        <path d="M20.844 29.17a.838.838 0 1 0-1.676 0 .838.838 0 0 0 1.676 0Z"/>
    </svg>
    <svg viewBox="0 0 24 24" id="facebook" xmlns="http://www.w3.org/2000/svg">
        <g clip-path="url(#clip0_590_2949)">
            <path d="M4.382 0A4.373 4.373 0 0 0 0 4.382v15.236A4.373 4.373 0 0 0 4.382 24h8.258v-9.383h-2.481V11.24h2.48V8.354c0-2.268 1.467-4.35 4.844-4.35 1.367 0 2.378.132 2.378.132l-.08 3.154s-1.03-.01-2.156-.01c-1.218 0-1.413.561-1.413 1.493v2.466h3.666l-.16 3.378h-3.506V24h3.406A4.373 4.373 0 0 0 24 19.618V4.382A4.373 4.373 0 0 0 19.618 0H4.382Z"/>
        </g>
    </svg>
    <svg viewBox="0 0 41 40" id="flash" xmlns="http://www.w3.org/2000/svg">
        <path d="m16.362 34.288 3.525-4.95 6.575-9.213 1.875-2.637h-5.613l.638-5.675.7-6.2-3.7 5.025-6.788 9.225-1.95 2.65h5.725l-.487 5.712-.5 6.063Zm-1.438-13.425 6.788-9.238-.85 7.538h4.237l-6.575 9.212.638-7.525h-4.238v.013Z"/>
        <path d="M12.874 3.112a18.338 18.338 0 0 1 7.138-1.437c2.475 0 4.875.487 7.137 1.437a18.412 18.412 0 0 1 5.825 3.925c.413.413.813.85 1.175 1.3h-4.137a.838.838 0 0 0 0 1.675h5.812c.063 0 .113 0 .163-.012.012 0 .025 0 .025-.013.012 0 .037-.012.05-.012h.012a.84.84 0 0 0 .575-.7V3.338a.837.837 0 1 0-1.675 0V6.75C31.312 2.612 25.962 0 20 0 8.987 0 .05 8.987 0 20a.838.838 0 0 0 1.675 0c0-2.475.488-4.875 1.438-7.137a18.414 18.414 0 0 1 3.925-5.826c1.7-1.687 3.662-3 5.837-3.925Zm26.3 16.051a.838.838 0 0 0-.837.837c0 2.475-.488 4.875-1.438 7.138a18.346 18.346 0 0 1-9.75 9.75 18.338 18.338 0 0 1-7.137 1.437c-2.475 0-4.875-.487-7.138-1.437a18.414 18.414 0 0 1-5.825-3.925c-.412-.413-.812-.85-1.175-1.3h4.138a.838.838 0 0 0 0-1.675H4.2c-.063 0-.113 0-.163.012-.012 0-.025 0-.025.013-.012 0-.037.012-.05.012h-.013a.84.84 0 0 0-.574.7v5.938a.838.838 0 0 0 1.675 0V33.25C8.712 37.388 14.062 40 20.023 40c11.013 0 19.95-8.987 20-20a.857.857 0 0 0-.85-.837Z"/>
    </svg>
    <svg viewBox="0 0 40 40" id="headlight" xmlns="http://www.w3.org/2000/svg">
        <path d="m29.8 32.963-3.537-3.538a.83.83 0 1 0-1.175 1.175l3.537 3.538a.83.83 0 1 0 1.175-1.175Zm.025-12.125h5a.837.837 0 0 0 0-1.675h-5a.838.838 0 0 0 0 1.675Zm-4.737-10.263a.83.83 0 0 0 1.175 0L29.8 7.038a.83.83 0 1 0-1.175-1.175L25.088 9.4a.83.83 0 0 0 0 1.175ZM14.825 5.838a.838.838 0 0 0 1.675 0v-5a.838.838 0 0 0-1.675 0v5Zm1.662 33.325v-5a.838.838 0 0 0-1.675 0v5c0 .462.375.837.838.837a.83.83 0 0 0 .837-.837Zm7.426-27.413c-4.563-4.55-11.938-4.55-16.5 0-4.55 4.562-4.55 11.937 0 16.5a11.656 11.656 0 0 0 16.5 0c4.55-4.55 4.55-11.938 0-16.5ZM15.663 30a9.936 9.936 0 0 1-7.075-2.925A9.936 9.936 0 0 1 5.662 20a9.936 9.936 0 0 1 2.926-7.075A9.936 9.936 0 0 1 15.663 10a9.936 9.936 0 0 1 7.075 2.925A9.936 9.936 0 0 1 25.663 20a9.936 9.936 0 0 1-2.925 7.075A9.98 9.98 0 0 1 15.663 30Z"/>
        <path d="M17.062 26.088a8.608 8.608 0 0 1 0-12.175A8.744 8.744 0 0 1 19.6 12.15a8.597 8.597 0 0 0-9.638 1.763 8.608 8.608 0 0 0 0 12.175c2.6 2.6 6.463 3.187 9.638 1.762a8.744 8.744 0 0 1-2.538-1.762Zm-2.212.75a6.932 6.932 0 0 1-3.713-1.925A6.892 6.892 0 0 1 9.1 20c0-1.85.725-3.6 2.037-4.912a6.848 6.848 0 0 1 3.713-1.925c.238-.038.475-.075.7-.088A10.216 10.216 0 0 0 12.862 20c0 1.338.25 2.638.75 3.863a10.34 10.34 0 0 0 1.938 3.062c-.225-.012-.463-.05-.7-.087Z"/>
    </svg>
    <svg fill="none" viewBox="0 0 24 24" id="instagram" xmlns="http://www.w3.org/2000/svg">
        <g clip-path="url(#clip0_590_2951)">
            <path d="M11.997 7.998A4.01 4.01 0 0 0 7.995 12a4.01 4.01 0 0 0 4.002 4.002A4.01 4.01 0 0 0 15.998 12a4.01 4.01 0 0 0-4.001-4.002ZM23.999 12c0-1.657.015-3.3-.078-4.953-.093-1.922-.532-3.627-1.937-5.032C20.576.607 18.874.172 16.953.08 15.296-.014 13.653 0 12 0c-1.657 0-3.3-.015-4.953.078C5.125.172 3.42.61 2.015 2.015.607 3.423.172 5.125.08 7.047-.014 8.704 0 10.346 0 12c0 1.654-.015 3.3.078 4.953.093 1.922.531 3.627 1.936 5.032 1.408 1.408 3.11 1.843 5.032 1.936 1.658.093 3.3.079 4.954.079 1.657 0 3.299.015 4.953-.078 1.921-.093 3.626-.531 5.031-1.936 1.408-1.408 1.843-3.11 1.937-5.032.096-1.654.078-3.296.078-4.953Zm-12.002 6.157A6.148 6.148 0 0 1 5.84 12a6.148 6.148 0 0 1 6.157-6.157A6.148 6.148 0 0 1 18.154 12a6.148 6.148 0 0 1-6.157 6.157ZM18.406 7.03a1.436 1.436 0 0 1-1.438-1.438c0-.796.642-1.438 1.438-1.438a1.436 1.436 0 0 1 1.329 1.988 1.436 1.436 0 0 1-1.329.888Z" fill="#888"/>
        </g>
    </svg>
    <svg viewBox="0 0 41 40" id="leaf" xmlns="http://www.w3.org/2000/svg">
        <path d="M37.362 9.1c.263-.575.65-1.5.988-2.487.825-2.475.813-4.088-.025-4.925-.425-.425-1.05-.638-1.875-.638-1.8 0-4.363 1.062-5.55 1.6C30.138 1.712 28.5 0 26.725 0c-.163 0-.325.012-.475.037-1.575.288-2.7 2.55-4.125 5.725-.262.6-.6 1.338-.863 1.826-.024-.025-.037-.063-.05-.088-.462-.725-1.224-1.925-2.674-1.925-.288 0-.588.05-.888.15-1.85.6-2.637 3.725-3.425 7.463-.075.324-.15.687-.213 1.024-.537-.687-1.35-1.5-2.662-1.5a3.49 3.49 0 0 0-.7.075c-.925.2-1.587 1.325-2.275 3.9-.462 1.688-.913 4.013-1.363 6.875a183.643 183.643 0 0 0-1.224 9.476L.25 38.575a.843.843 0 0 0-.25.587c0 .463.375.838.837.838a.793.793 0 0 0 .588-.25l5.538-5.538c1.125-.112 5.3-.562 9.474-1.225 2.875-.45 5.188-.912 6.875-1.375 2.575-.7 3.713-1.35 3.9-2.274.188-.9.026-1.726-.5-2.438a4.546 4.546 0 0 0-.924-.912c.325-.075.687-.15 1.024-.213 3.726-.775 6.863-1.575 7.463-3.425.275-.875.15-1.7-.375-2.388-.4-.524-.962-.875-1.4-1.162-.025-.012-.05-.038-.087-.05.475-.25 1.225-.587 1.825-.863 3.175-1.425 5.45-2.562 5.724-4.125.363-1.962-1.575-3.825-2.6-4.662Zm.963 4.35c-.013.05-.125.488-1.488 1.3-.975.575-2.2 1.125-3.287 1.613-1.862.837-2.7 1.224-3 1.787-.262.488-.163 1.025.25 1.45.212.225.5.4.8.6 1 .637 1.3.963 1.087 1.637-.05.138-.337.663-2.124 1.276-1.275.437-2.838.762-4.088 1.024-2.013.425-2.688.563-2.95 1.15-.087.2-.25.726.275 1.263.162.175.363.313.6.488.338.237.725.512.963.85.237.324.3.65.237 1.05-.188.2-1.513 1.2-9.888 2.487-2.575.4-5.112.713-6.862.912L24.538 16.65c.15-.15.25-.362.25-.587a.838.838 0 0 0-.838-.838.793.793 0 0 0-.587.25L7.675 31.163c.2-1.75.512-4.288.912-6.863 1.288-8.375 2.288-9.7 2.488-9.888.1-.012.2-.025.288-.025.687 0 1.125.525 1.612 1.226.338.474.7.974 1.313.974.15 0 .3-.037.425-.1.587-.262.725-.95 1.15-2.95.262-1.25.587-2.812 1.024-4.087.613-1.787 1.125-2.075 1.276-2.125a1.07 1.07 0 0 1 .375-.063c.487 0 .837.476 1.262 1.15.363.563.762 1.188 1.488 1.188.187 0 .375-.05.562-.137.563-.3.95-1.138 1.787-3 .488-1.088 1.038-2.313 1.613-3.288.813-1.362 1.25-1.487 1.3-1.487a.825.825 0 0 1 .175-.013c1.087 0 2.563 1.537 3.237 2.5l.413.588.65-.326c.963-.475 3.813-1.724 5.425-1.724.4 0 .612.075.688.15.025.025.512.55-.375 3.2-.5 1.525-1.188 2.9-1.2 2.912l-.326.65.588.412c.912.625 2.712 2.288 2.5 3.413Z"/>
    </svg>
    <svg viewBox="0 0 8 14" fill="none" id="left-arrow" xmlns="http://www.w3.org/2000/svg">
        <path d="M7 13 1 7l6-6"/>
    </svg>
    <svg viewBox="0 0 16 16" id="left-arrow-red" xmlns="http://www.w3.org/2000/svg">
        <path d="M10 12 6 8l4-4"/>
    </svg>
    <svg viewBox="0 0 125 24" id="logo" xmlns="http://www.w3.org/2000/svg">
        <g clip-path="url(#clip0_1512_2634)">
            <path d="m33.208.06-1.98 5.647h-16.16a3.431 3.431 0 0 0-1.788.466c-.522.311-.852.675-.99 1.092L6.446 24H0L7.09 3.55C7.899 1.224 9.662.06 12.38.06h20.828Zm25.888 4.776L52.448 24H32.624c-1.084 0-1.89-.361-2.418-1.084-.44-.623-.66-1.405-.655-2.347a5.159 5.159 0 0 1 .296-1.775l2.54-7.434C33 9.554 34.25 8.65 36.14 8.65h15.185l.444-1.397a1.61 1.61 0 0 0 .088-.505c0-.694-.443-1.04-1.33-1.04h-16.22L36.26.06h19.97c2.086 0 3.129 1.061 3.129 3.184a4.73 4.73 0 0 1-.262 1.592Zm-9.72 9.462H39.214c-.927 0-1.538.427-1.832 1.28l-.384 1.037a2.562 2.562 0 0 0-.118.732c0 .671.334 1.007 1.004 1.006h10.104l1.388-4.055ZM70.297 0l-8.326 24h-6.446l8.331-24h6.441Zm25.857 6.398L90.01 24h-6.38l5.64-16.43c.058-.195.088-.398.089-.601 0-.841-.345-1.262-1.034-1.262h-8.568c-1.164 0-1.942.6-2.334 1.802L71.783 24h-6.447L73.585.06H93.29c2.344 0 3.516 1.031 3.516 3.094 0 .862-.218 1.943-.653 3.244Zm28.255-.313-3.073 8.814h-18.613l-.502 1.545a2.956 2.956 0 0 0-.207.97c0 .626.394.939 1.182.939h16.959L118.205 24h-18.29c-3.468 0-5.202-1.101-5.2-3.304 0-.622.216-1.573.65-2.854l5.409-15.92c.432-1.24 1.486-1.861 3.161-1.862h17.342C123.759.06 125 1.1 125 3.18c0 .778-.197 1.747-.591 2.906Zm-6.884 1.17c.04-.124.06-.255.059-.386 0-.775-.482-1.162-1.447-1.162h-8.273c-.709 0-1.211.05-1.507.149-.197.071-.375.19-.519.345a1.357 1.357 0 0 0-.308.548l-.798 2.503h12.143l.65-1.997Z"/>
        </g>
    </svg>
    <svg viewBox="0 0 41 40" id="mountain" xmlns="http://www.w3.org/2000/svg">
        <path d="M39.836 31.16 26.682 14.717v-1.376h5.002a.84.84 0 0 0 .575-1.45l-1.05-1.05 1.075-1.076a.824.824 0 0 0 .175-.912.833.833 0 0 0-.776-.513h-5.839a.838.838 0 0 0-.838.838v5.552l-9.44 13.041-6.64-8.29a.867.867 0 0 0-.675-.313c-.262 0-.5.138-.65.338L.16 29.684a.835.835 0 0 0 .175 1.163c.15.112.325.162.488.162a.818.818 0 0 0 .675-.337l4.201-5.74.225.438c.1.2.275.35.488.413a.81.81 0 0 0 .638-.05l1.3-.65 1.3.65c.113.062.25.087.376.087a.82.82 0 0 0 .525-.187l.725-.588 3.301 4.114-6.89 9.515a.825.825 0 0 0 .188 1.163.79.79 0 0 0 .488.163.83.83 0 0 0 .675-.35L21.23 22.82l1.65 1.187c.25.175.576.2.863.063l2.964-1.476 2.963 1.476a.853.853 0 0 0 1.063-.263l.525-.75 7.303 9.128a.834.834 0 0 0 1.175.125c.338-.275.388-.788.1-1.15ZM9.902 24.02l-1.188-.588a.875.875 0 0 0-.75 0l-.926.463-.237-.463 1.5-2.05 1.9 2.375-.3.263Zm19.53-12.592.25.25h-2.988v-1.675h2.989l-.25.25a.83.83 0 0 0 0 1.175Zm.313 10.841-2.688-1.35a.876.876 0 0 0-.75 0l-2.889 1.438-1.238-.888 3.702-5.102 4.263 5.327-.4.575ZM10.852 7.502c0-1.838-1.5-3.338-3.339-3.338a3.346 3.346 0 0 0-3.338 3.338c0 1.839 1.5 3.339 3.338 3.339s3.339-1.5 3.339-3.339ZM7.513 9.165a1.662 1.662 0 1 1-.001-3.324 1.662 1.662 0 0 1 .001 3.324Zm0-5.826a.838.838 0 0 0 .838-.838V.838a.838.838 0 0 0-1.675 0V2.5c0 .462.375.838.837.838Zm-.837 9.165v1.663a.838.838 0 1 0 1.675 0v-1.663a.838.838 0 0 0-1.675 0ZM4.287 3.589a.839.839 0 0 0 1.138.3.822.822 0 0 0 .3-1.138l-.837-1.438a.822.822 0 0 0-1.138-.3.822.822 0 0 0-.3 1.138l.837 1.438Zm5.84 10.103a.839.839 0 0 0 1.138.3.822.822 0 0 0 .3-1.138l-.838-1.438a.822.822 0 0 0-1.138-.3.822.822 0 0 0-.3 1.138l.838 1.438ZM1.324 4.89l1.438.837a.82.82 0 0 0 .413.112c.287 0 .562-.15.725-.412.225-.4.1-.913-.3-1.138L2.15 3.45a.844.844 0 0 0-1.139.3.837.837 0 0 0 .313 1.138Zm11.966 6.776c.288 0 .563-.15.726-.412.225-.4.1-.913-.3-1.138l-1.451-.838a.844.844 0 0 0-1.138.3c-.225.4-.1.913.3 1.138l1.45.838a.687.687 0 0 0 .413.112ZM.849 8.34h1.663a.838.838 0 0 0 0-1.675H.849a.838.838 0 0 0 0 1.675Zm11.666-1.675a.838.838 0 0 0 0 1.675h1.663a.838.838 0 0 0 0-1.675h-1.663ZM3.9 9.59a.822.822 0 0 0-1.138-.3l-1.438.838a.822.822 0 0 0-.3 1.138.84.84 0 0 0 1.138.3l1.45-.838A.832.832 0 0 0 3.9 9.59Zm7.227-4.176a.839.839 0 0 0 1.138.3l1.438-.837a.822.822 0 0 0 .3-1.138.822.822 0 0 0-1.138-.3l-1.45.837a.835.835 0 0 0-.288 1.138Zm-7.365 8.59a.855.855 0 0 0 .413.113c.287 0 .575-.15.725-.413l.838-1.438a.844.844 0 0 0-.3-1.138c-.4-.225-.913-.1-1.138.3l-.838 1.438c-.237.388-.1.9.3 1.138Zm5.84-10.116a.855.855 0 0 0 .412.113c.288 0 .563-.15.725-.413l.838-1.438c.225-.4.1-.912-.3-1.137a.844.844 0 0 0-1.138.3L9.301 2.75c-.237.4-.1.912.3 1.137Z"/>
    </svg>
    <svg fill="none" viewBox="0 0 14 21" id="pagination-arrow" xmlns="http://www.w3.org/2000/svg">
        <path d="M7 1v19m0 0 6-6m-6 6-6-6" stroke="#fff" stroke-width="1.4" stroke-linecap="round" stroke-linejoin="round"/>
    </svg>
    <svg fill="none" viewBox="0 0 62 62" id="pagination-ellipse" xmlns="http://www.w3.org/2000/svg">
        <circle cx="31" cy="31" r="30" stroke="#888" stroke-width="2" stroke-linecap="round" stroke-linejoin="round" stroke-dasharray="0.01 8"/>
    </svg>
    <svg viewBox="0 0 8 14" fill="none" id="right-arrow" xmlns="http://www.w3.org/2000/svg">
        <path d="m1 13 6-6-6-6"/>
    </svg>
    <svg viewBox="0 0 16 16" id="right-arrow-red" xmlns="http://www.w3.org/2000/svg">
        <path d="m6 4 4 4-4 4"/>
    </svg>
    <svg viewBox="0 0 50 50" id="rocket" xmlns="http://www.w3.org/2000/svg">
        <path d="m48.5 2.039-.001.007c-.369 8.907-5.231 19.413-13.953 28.15l-.133.133-.012.188c-.307 4.803-2.603 9.971-6.784 14.152l-.002.002a23.998 23.998 0 0 1-4.711 3.712.596.596 0 0 0-.099.056l-.01.007a.53.53 0 0 1-.576-.102.414.414 0 0 1-.101-.157l-.002-.005-.012-.044-.03-.095-1.916-6.874-.158-.564-.532.244a42.03 42.03 0 0 1-3.213 1.318.498.498 0 0 1-.515-.122l-.354.353.354-.353-.63-.63-.522-.522-.291.678a5.022 5.022 0 0 1-1.08 1.584c-.446.447-1.403 1.014-2.662 1.626-1.238.601-2.705 1.216-4.116 1.77a119.047 119.047 0 0 1-4.425 1.63 125.747 125.747 0 0 1 1.63-4.425c.554-1.41 1.169-2.878 1.77-4.116.612-1.26 1.18-2.216 1.627-2.663a5.021 5.021 0 0 1 1.583-1.079l.679-.29-.523-.523-.824-.825a.498.498 0 0 1-.123-.514c.385-1.064.829-2.13 1.32-3.216l.24-.53-.562-.157-6.874-1.917a4.123 4.123 0 0 0-.095-.03l-.044-.012-.005-.002a.414.414 0 0 1-.157-.101l-.008-.008a.484.484 0 0 1-.09-.58l.005-.007.031-.05a25.496 25.496 0 0 1 3.737-4.752C9.513 18.2 14.68 15.89 19.48 15.6l.19-.012.133-.134C28.541 6.732 39.047 1.87 47.954 1.501h.007a.539.539 0 0 1 .393.133c.098.11.153.273.145.405Zm-4.46 11.435.531.531.285-.695c1.426-3.473 2.311-6.929 2.571-10.199l.047-.584-.585.046c-3.27.26-6.725 1.145-10.2 2.57l-.694.286.531.53 7.514 7.515ZM3.168 26.55l-.39.576.67.185 6.015 1.665.394.11.185-.364c1.915-3.755 4.47-7.5 7.606-10.993l1.005-1.12-1.475.296c-1.697.34-3.404.94-5.06 1.768-2.21 1.105-4.249 2.593-6.07 4.413a23.503 23.503 0 0 0-2.88 3.464Zm2.915 19.09.007-.002c5.012-1.966 6.18-2.927 6.425-3.172a4 4 0 0 0 1.13-2.197l.04-.25-.18-.18-3.135-3.135-.182-.183-.255.044a4.072 4.072 0 0 0-2.19 1.144l.354.354-.354-.354c-.245.245-1.206 1.414-3.172 6.441v.002c-.18.464-.361.933-.528 1.388l-.372 1.013 1.013-.372c.232-.085.466-.177.698-.268l.048-.02c.218-.085.434-.17.653-.253Zm9.91-4.749.23.23.303-.117a48.718 48.718 0 0 0 2.94-1.242l.002-.002c2.49-1.168 4.96-2.624 7.336-4.304a54.647 54.647 0 0 0 6.994-5.92 54.646 54.646 0 0 0 5.92-6.993 48.623 48.623 0 0 0 4.258-7.244l.151-.319-.25-.25-8.609-8.608-.249-.25-.318.151a47.87 47.87 0 0 0-7.245 4.26 54.646 54.646 0 0 0-6.994 5.918 54.656 54.656 0 0 0-5.918 6.993c-1.681 2.363-3.137 4.833-4.305 7.338l-.001.002a48.67 48.67 0 0 0-1.243 2.94l-.116.303.23.23 6.884 6.884Zm6.696 5.675.188.674.577-.396a24.654 24.654 0 0 0 3.46-2.878c1.82-1.82 3.308-3.859 4.399-6.07.827-1.656 1.428-3.347 1.767-5.06l.29-1.466-1.113.995c-3.494 3.122-7.239 5.678-10.995 7.608l-.363.186.11.393 1.68 6.014Z"/>
        <path d="m28.967 17.492-.007.007a2.533 2.533 0 0 0-.725 1.771 2.499 2.499 0 0 0 2.495 2.495c.658 0 1.295-.262 1.763-.731a2.51 2.51 0 0 0 0-3.542 2.473 2.473 0 0 0-1.763-.732 2.5 2.5 0 0 0-1.763.732Zm4.261 4.243a3.533 3.533 0 0 1-2.483 1.025 3.467 3.467 0 0 1-2.48-1.007 3.507 3.507 0 0 1-1.025-2.483c0-.946.367-1.823 1.022-2.48a3.533 3.533 0 0 1 2.483-1.024 3.48 3.48 0 0 1 2.481 1.023 3.501 3.501 0 0 1 .002 4.946Zm-9.208 7.788.006-.007a2.525 2.525 0 0 0 .725-1.756 2.5 2.5 0 0 0-2.495-2.495 2.499 2.499 0 0 0-2.495 2.495 2.499 2.499 0 0 0 2.495 2.494 2.5 2.5 0 0 0 1.763-.731Zm-4.247-4.243a3.533 3.533 0 0 1 2.483-1.025c.934 0 1.81.353 2.48 1.022a3.533 3.533 0 0 1 1.024 2.483 3.48 3.48 0 0 1-1.021 2.479 3.532 3.532 0 0 1-2.483 1.025 3.48 3.48 0 0 1-2.48-1.021 3.533 3.533 0 0 1-1.025-2.483 3.48 3.48 0 0 1 1.022-2.48Z"/>
    </svg>
    <svg viewBox="0 0 40 40" id="rocket-2" xmlns="http://www.w3.org/2000/svg">
        <path d="M39.548.45C38.423.15 37.26 0 36.098 0c-3.413 0-6.826 1.3-9.427 3.9L14.983 15.59l-7.564 1.437S.256 23.24.244 23.252a.83.83 0 0 0 0 1.175.88.88 0 0 0 .612.238l7.751-.788-.7 3.488 1.763 1.763-1.763 1.763a.83.83 0 1 0 1.175 1.175l1.763-1.763 1.775 1.763 3.488-.7-.788 7.75a.832.832 0 0 0 .825.863.786.786 0 0 0 .588-.25c.012-.012 6.226-7.176 6.226-7.176l1.437-7.563 11.689-11.689c3.5-3.45 4.65-8.4 3.463-12.851ZM8.32 22.252l-4.95.5c1.462-1.262 3.4-2.95 4.8-4.163l4.7-.887-4.55 4.55Zm1.387 4.588.388-1.962 1.813 1.812.112.113-1.175 1.175-1.138-1.138Zm3.45 3.45-1.137-1.137 1.175-1.175 1.925 1.925-1.962.388Zm8.251 1.538c-1.212 1.4-2.9 3.35-4.163 4.8l.5-4.95 4.563-4.55-.9 4.7ZM34.91 12.164 17.32 29.753l-2.125-2.125-.825-.825 5.3-5.3a.83.83 0 1 0-1.174-1.176l-5.301 5.3-2.95-2.95L27.834 5.088a11.879 11.879 0 0 1 2.588-1.963l6.438 6.438a11.237 11.237 0 0 1-1.95 2.6Zm3.05-5.326c-.1.375-.212.75-.35 1.113l-5.563-5.563c1.3-.475 2.65-.725 4.038-.725.687 0 1.375.062 2.063.187.3 1.65.237 3.363-.188 4.988Z"/>
        <path d="M26.171 10.502a3.34 3.34 0 0 0-2.363.975 3.335 3.335 0 0 0 0 4.712c.65.65 1.5.976 2.363.976a3.334 3.334 0 0 0 2.363-5.688 3.363 3.363 0 0 0-2.363-.976Zm1.175 4.512a1.666 1.666 0 0 1-1.175.488c-.45 0-.862-.175-1.175-.488a1.675 1.675 0 0 1 0-2.362 1.666 1.666 0 0 1 1.175-.488 1.666 1.666 0 0 1 1.663 1.663c0 .45-.175.862-.488 1.187Z"/>
    </svg>
    <svg viewBox="0 0 50 50" id="scooter" xmlns="http://www.w3.org/2000/svg">
        <mask id="aya">
            <path d="M44.465 37.54V8.125a3.993 3.993 0 0 0 1.5-3.12C45.965 2.8 44.18 1 41.975 1a4.014 4.014 0 0 0-4.005 4.005c0 1.26.585 2.385 1.5 3.12V28.99h-.495c-.555 0-1.005.45-1.005 1.005 0 .555.45.99 1.005.99h.495v2.91c-1.725.405-5.445 1.875-8.475 7.095H16.73c-.48-1.44-1.815-4.485-4.74-6-2.37-1.215-5.175-1.17-8.385.135a.999.999 0 0 0 .765 1.845c2.625-1.08 4.875-1.155 6.69-.225 1.935.99 3.015 2.955 3.54 4.23h-.96c-.12-.33-.27-.66-.45-.975v-.03c-.015 0-.015-.015-.03-.015A5.962 5.962 0 0 0 8 36.985c-2.22 0-4.125 1.185-5.175 2.97l-.015.015c-.015.015-.015.015-.015.03A5.958 5.958 0 0 0 2 42.985c0 1.08.285 2.1.795 2.985 0 0 0 .015.015.03 0 .015.015.03.03.045C3.89 47.8 5.81 49 8 49a5.98 5.98 0 0 0 5.16-2.955c0-.03.015-.03.03-.045h20.775c.435 0 .825-.285.96-.69.27-.855.615-1.65 1.05-2.37V43c0 3.315 2.685 6 5.985 6 3.315 0 6-2.7 6-6 0-2.415-1.44-4.5-3.495-5.46ZM41.96 3.01c1.11 0 2.01.885 2.01 1.995C43.97 6.1 43.07 7 41.96 7c-1.095 0-1.995-.9-1.995-1.995 0-1.11.9-1.995 1.995-1.995Zm0 6c.18 0 .345-.015.51-.03v6.03h-1.005V8.98c.165.015.33.03.495.03Zm-.495 7.995h1.005v12h-1.005v-12ZM42.47 31v11.88c0 .18-.06.33-.18.45a.43.43 0 0 1-.33.15c-.27 0-.495-.285-.495-.615V31h1.005ZM3.98 43c0-.36.045-.72.135-1.065L5.975 43l-1.86 1.065c-.09-.33-.135-.69-.135-1.065Zm7.995 0c0 .375-.06.735-.15 1.065L9.965 43l1.86-1.065c.09.33.15.69.15 1.065Zm-1.155-2.805L8.96 41.26v-2.145c.72.195 1.365.57 1.86 1.08ZM6.965 39.13v2.145l-1.86-1.065c.51-.525 1.14-.9 1.86-1.08Zm-1.86 6.66 1.86-1.065v2.145c-.72-.18-1.35-.57-1.86-1.08Zm3.855 1.08v-2.145l1.86 1.065c-.495.51-1.14.9-1.86 1.08Zm24.285-2.865H13.88c.045-.33.075-.66.075-1.005h17.61c.375 0 .705-.195.885-.51 1.815-3.33 3.9-4.98 5.355-5.775.63-.345 1.2-.57 1.65-.72V37.3c-1.44.585-4.575 2.34-6.21 6.705Zm8.715 2.985c-2.205 0-4.005-1.785-4.005-3.99 0-1.26.585-2.385 1.5-3.12v3c0 1.44 1.125 2.625 2.505 2.625.69 0 1.32-.285 1.8-.795.465-.495.705-1.14.705-1.83v-3c.915.735 1.5 1.86 1.5 3.12a4.001 4.001 0 0 1-4.005 3.99Z"/>
        </mask>
        <path d="M44.465 37.54V8.125a3.993 3.993 0 0 0 1.5-3.12C45.965 2.8 44.18 1 41.975 1a4.014 4.014 0 0 0-4.005 4.005c0 1.26.585 2.385 1.5 3.12V28.99h-.495c-.555 0-1.005.45-1.005 1.005 0 .555.45.99 1.005.99h.495v2.91c-1.725.405-5.445 1.875-8.475 7.095H16.73c-.48-1.44-1.815-4.485-4.74-6-2.37-1.215-5.175-1.17-8.385.135a.999.999 0 0 0 .765 1.845c2.625-1.08 4.875-1.155 6.69-.225 1.935.99 3.015 2.955 3.54 4.23h-.96c-.12-.33-.27-.66-.45-.975v-.03c-.015 0-.015-.015-.03-.015A5.962 5.962 0 0 0 8 36.985c-2.22 0-4.125 1.185-5.175 2.97l-.015.015c-.015.015-.015.015-.015.03A5.958 5.958 0 0 0 2 42.985c0 1.08.285 2.1.795 2.985 0 0 0 .015.015.03 0 .015.015.03.03.045C3.89 47.8 5.81 49 8 49a5.98 5.98 0 0 0 5.16-2.955c0-.03.015-.03.03-.045h20.775c.435 0 .825-.285.96-.69.27-.855.615-1.65 1.05-2.37V43c0 3.315 2.685 6 5.985 6 3.315 0 6-2.7 6-6 0-2.415-1.44-4.5-3.495-5.46ZM41.96 3.01c1.11 0 2.01.885 2.01 1.995C43.97 6.1 43.07 7 41.96 7c-1.095 0-1.995-.9-1.995-1.995 0-1.11.9-1.995 1.995-1.995Zm0 6c.18 0 .345-.015.51-.03v6.03h-1.005V8.98c.165.015.33.03.495.03Zm-.495 7.995h1.005v12h-1.005v-12ZM42.47 31v11.88c0 .18-.06.33-.18.45a.43.43 0 0 1-.33.15c-.27 0-.495-.285-.495-.615V31h1.005ZM3.98 43c0-.36.045-.72.135-1.065L5.975 43l-1.86 1.065c-.09-.33-.135-.69-.135-1.065Zm7.995 0c0 .375-.06.735-.15 1.065L9.965 43l1.86-1.065c.09.33.15.69.15 1.065Zm-1.155-2.805L8.96 41.26v-2.145c.72.195 1.365.57 1.86 1.08ZM6.965 39.13v2.145l-1.86-1.065c.51-.525 1.14-.9 1.86-1.08Zm-1.86 6.66 1.86-1.065v2.145c-.72-.18-1.35-.57-1.86-1.08Zm3.855 1.08v-2.145l1.86 1.065c-.495.51-1.14.9-1.86 1.08Zm24.285-2.865H13.88c.045-.33.075-.66.075-1.005h17.61c.375 0 .705-.195.885-.51 1.815-3.33 3.9-4.98 5.355-5.775.63-.345 1.2-.57 1.65-.72V37.3c-1.44.585-4.575 2.34-6.21 6.705Zm8.715 2.985c-2.205 0-4.005-1.785-4.005-3.99 0-1.26.585-2.385 1.5-3.12v3c0 1.44 1.125 2.625 2.505 2.625.69 0 1.32-.285 1.8-.795.465-.495.705-1.14.705-1.83v-3c.915.735 1.5 1.86 1.5 3.12a4.001 4.001 0 0 1-4.005 3.99Z" mask="url(#aya)"/>
        <path d="M42.33 4.657c.19.194.19.502 0 .696a.514.514 0 0 1-.721.003.496.496 0 0 1 0-.703c.19-.19.506-.2.72.004Z"/>
    </svg>
    <svg fill="none" viewBox="0 0 1003 66" id="scooter-platform" xmlns="http://www.w3.org/2000/svg">
        <ellipse cx="501.5" cy="33" rx="500.5" ry="32" stroke="url(#axa)" stroke-width="2" stroke-linecap="round" stroke-linejoin="round" stroke-dasharray="0.01 8"/>
        <defs>
            <linearGradient id="axa" x1="501.5" y1="1" x2="501.5" y2="65" gradientUnits="userSpaceOnUse">
                <stop stop-color="#9599A5" stop-opacity="0"/>
                <stop offset="1" stop-color="#9599A5"/>
            </linearGradient>
        </defs>
    </svg>
    <svg viewBox="0 0 485.102 485.102" xml:space="preserve" id="speedometer-3" xmlns="http://www.w3.org/2000/svg">
        <path d="M483.465 265.101c-6.9-60.3-35.3-116-79.8-156.7-44.4-40.6-101.8-62.9-161.5-62.9-59.8 0-117.1 22.3-161.5 62.9l-.1.1c-44.2 41.2-72.2 97-79 157-6.8 60.7 8.7 121.1 43.9 169.9 1.9 2.7 4.9 4.2 8.1 4.2h377.9c3.2 0 6.2-1.5 8.2-4.2 35.2-48.9 50.8-109.4 43.8-170.3zm-57.201 154.5h-367.5c-63-91.8-48.2-218.4 35.4-296.4 84.4-77.1 211.6-77.1 295.9 0 84.6 77.3 99.7 203.9 36.2 296.4z"/>
        <path d="M332.164 123.201c-27.4-15.8-58.5-24.2-90.1-24.2-31.2 0-62.1 8.4-89.4 24.2-27.2 15.8-50.1 38.7-66.4 66.2-.9 1.5-1.4 3.3-1.4 5.1v53c0 5.5 4.5 10 10 10s10-4.5 10-10v-50.2c11.4-18.7 26.3-34.6 43.4-47.2v44.4c0 5.5 4.5 10 10 10s10-4.5 10-10v-56.9c19.9-10.6 41.9-16.9 64.5-18.3v53.8c0 5.5 4.5 10 10 10s10-4.5 10-10v-53.8c22.9 1.5 44.8 7.9 64.5 18.4v56.7c0 5.5 4.5 10 10 10s10-4.5 10-10v-44c16.7 12.4 31.2 28.2 42.6 46.8v50.2c0 5.5 4.5 10 10 10s10-4.5 10-10v-53c.2-1.7-.3-3.4-1.2-5-16.2-27.5-39.2-50.4-66.5-66.2z"/>
        <path d="M242.965 301.601c-1.6 0-3.1.1-4.6.3l-28.7-58c-2.4-5-8.4-7-13.4-4.5-5 2.4-7 8.4-4.5 13.4l27.7 56.1c-11.2 7.6-18.6 20.6-18.6 35.2 0 23.3 18.5 41.6 42.1 41.6 22.8 0 41.3-18.7 41.3-41.6-.101-23.4-18.601-42.5-41.3-42.5zm0 64.1c-12.4 0-22.1-9.5-22.1-21.6 0-12.4 9.9-22.5 22.1-22.5 11.5 0 21.3 10.3 21.3 22.5-.101 11.9-9.601 21.6-21.3 21.6z"/>
    </svg>
    <svg viewBox="0 0 50 50" id="speedometr" xmlns="http://www.w3.org/2000/svg">
        <path d="M42.34 41.46c1.18-1.42 2.18-2.98 3-4.66a22.475 22.475 0 0 0 .94-17.22C43.2 10.78 34.86 4.48 25 4.48c-9.86 0-18.22 6.34-21.28 15.14-.8 2.32-1.28 4.8-1.28 7.4 0 3.48.8 6.76 2.2 9.7.82 1.7 1.82 3.28 3.02 4.72"/>
        <path d="M34 43.98c0 1.12-.9 2.02-2.02 2.02H18.02C16.9 46 16 45.1 16 43.98v-3.96c0-1.12.9-2.02 2.02-2.02h13.96c1.12 0 2.02.9 2.02 2.02v3.96Zm13.54-17.1h-5.86m-33.12 0H2.44m8.3 8.22-5.28 3.06M36.2 7.46l-2.9 5.04M25 4.48v5.84M13.78 7.46l2.96 5.14m-11.2 3.06 5.2 3m28.68 16.56 5.18 2.96m-16.22-8.9c-.8 1.86-2.96 2.74-4.82 1.94-1.86-.8-2.74-2.96-1.94-4.82.8-1.86 2.96-2.74 4.82-1.94 1.86.78 2.74 2.94 1.94 4.82Zm-.3-3.44 13.04-8.42"/>
    </svg>
    <svg viewBox="0 0 40 40" id="termometer" xmlns="http://www.w3.org/2000/svg">
        <path d="M14.908 4.162A4.16 4.16 0 0 0 10.746 0a4.161 4.161 0 0 0-4.163 4.162v25.913a5.826 5.826 0 0 0-1.662 4.088A5.836 5.836 0 0 0 10.758 40a5.836 5.836 0 0 0 5.838-5.837 5.871 5.871 0 0 0-1.663-4.088V4.162h-.025Zm-4.162 34.175a4.17 4.17 0 0 1-4.163-4.162c0-1.1.425-2.137 1.188-2.912l.475-.488V18.35a.83.83 0 0 0 .762-.825.82.82 0 0 0-.762-.825V4.2c0-1.375 1.125-2.5 2.5-2.5s2.5 1.125 2.5 2.5v12.5a.83.83 0 0 0-.763.825c0 .438.338.8.763.825v12.425l.475.488a4.178 4.178 0 0 1 1.187 2.912 4.17 4.17 0 0 1-4.162 4.163Z"/>
        <path d="M11.583 31.813V7.5a.838.838 0 0 0-1.675 0v24.313a2.482 2.482 0 0 0-1.662 2.362c0 1.375 1.125 2.5 2.5 2.5s2.5-1.125 2.5-2.5c0-1.1-.7-2.025-1.663-2.362ZM10.746 35a.838.838 0 1 1 0-1.675.838.838 0 0 1 0 1.675Zm15-20.775a.837.837 0 0 0 .837-.838v-1.662a.837.837 0 0 0-1.675 0v1.662c0 .463.375.838.838.838Zm0 11.675a.838.838 0 0 0-.838.837V28.4a.838.838 0 0 0 1.675 0v-1.663a.83.83 0 0 0-.837-.837Zm-6.488-11.138 1.175 1.175a.83.83 0 1 0 1.175-1.175l-1.175-1.175a.83.83 0 1 0-1.175 1.175Zm12.975 10.601-1.175-1.175a.83.83 0 1 0-1.175 1.175l1.175 1.175a.83.83 0 1 0 1.175-1.175ZM19.083 20.9a.837.837 0 1 0 0-1.675h-1.662a.838.838 0 0 0 0 1.675h1.662Zm15-1.675h-1.662a.838.838 0 0 0 0 1.675h1.662a.837.837 0 0 0 .838-.838.854.854 0 0 0-.838-.837Zm-13.637 4.963-1.175 1.175a.83.83 0 1 0 1.175 1.175l1.175-1.175a.83.83 0 1 0-1.175-1.175Zm10.6-8.251 1.175-1.175a.83.83 0 1 0-1.175-1.175l-1.175 1.175a.83.83 0 1 0 1.175 1.175Zm-5.3-.875c-2.763 0-5 2.238-5 5 0 2.763 2.237 5 5 5 2.762 0 5-2.237 5-5a5 5 0 0 0-5-5Zm0 8.338a3.345 3.345 0 0 1-3.338-3.338c0-1.837 1.5-3.337 3.338-3.337 1.837 0 3.337 1.5 3.337 3.337 0 1.838-1.5 3.338-3.337 3.338Z"/>
    </svg>
    <svg fill="none" viewBox="0 0 24 24" id="twitter" xmlns="http://www.w3.org/2000/svg">
        <g clip-path="url(#bca)">
            <path d="M20 7.531a6.95 6.95 0 0 1-1.89.532c.708-.417 1.192-1.027 1.453-1.829a6.526 6.526 0 0 1-2.094.797C16.833 6.344 16.036 6 15.079 6c-.907 0-1.68.32-2.321.96a3.168 3.168 0 0 0-.961 2.321c0 .302.026.552.078.75a9.288 9.288 0 0 1-3.781-1.015 9.301 9.301 0 0 1-3-2.422A3.25 3.25 0 0 0 4.64 8.25c0 1.188.474 2.099 1.421 2.734-.49-.01-1.01-.146-1.562-.406v.031c0 .782.26 1.477.781 2.086.521.61 1.162.987 1.922 1.133a3.045 3.045 0 0 1-.797.125 4.36 4.36 0 0 1-.61-.062 3.335 3.335 0 0 0 1.165 1.625c.557.427 1.19.646 1.898.656-1.208.937-2.567 1.406-4.078 1.406-.27 0-.531-.015-.781-.047A9.204 9.204 0 0 0 9.031 19a9.56 9.56 0 0 0 3.281-.555c1.021-.37 1.896-.864 2.626-1.484a9.853 9.853 0 0 0 1.882-2.14 9.431 9.431 0 0 0 1.555-5.165c0-.187-.005-.328-.016-.422A6.378 6.378 0 0 0 20 7.531ZM24 4.5v15c0 1.24-.44 2.3-1.32 3.18-.88.88-1.94 1.32-3.18 1.32h-15c-1.24 0-2.3-.44-3.18-1.32C.44 21.8 0 20.74 0 19.5v-15c0-1.24.44-2.3 1.32-3.18C2.2.44 3.26 0 4.5 0h15c1.24 0 2.3.44 3.18 1.32C23.56 2.2 24 3.26 24 4.5Z" fill="#888"/>
        </g>
        <defs>
            <clipPath id="bca">
                <path fill="#fff" d="M0 0h24v24H0z"/>
            </clipPath>
        </defs>
    </svg>
    <svg viewBox="0 0 40 40" id="warranty" xmlns="http://www.w3.org/2000/svg">
        <path d="m24.59 26.817 3.473-3.387a.825.825 0 0 0-.462-1.412l-4.798-.7-2.15-4.348a.818.818 0 0 0-.75-.463.832.832 0 0 0-.75.463l-2.149 4.348-4.798.7a.846.846 0 0 0-.675.562c-.1.3-.012.638.212.85l3.474 3.387-.824 4.773a.83.83 0 0 0 .337.812c.262.188.6.213.875.063l4.286-2.25 4.286 2.25c.125.062.25.1.387.1.175 0 .35-.05.488-.163a.798.798 0 0 0 .325-.812l-.787-4.773Zm-1.475-.888a.805.805 0 0 0-.237.738l.612 3.548-3.187-1.674a.85.85 0 0 0-.387-.1.85.85 0 0 0-.387.1l-3.187 1.674.612-3.548a.805.805 0 0 0-.237-.738l-2.574-2.511 3.561-.513a.823.823 0 0 0 .625-.462l1.587-3.224 1.587 3.224c.125.25.362.412.625.462l3.561.513-2.574 2.511Z"/>
        <path d="M34.911 25.005c0-.013 0 0 0 0a14.9 14.9 0 0 0-4.398-10.61c-2.825-2.836-6.586-4.386-10.597-4.386-1.6 0-3.149.25-4.624.725 1.375-1.812 2.762-3.124 4.062-3.799 1.024-.537 1.949-.637 2.749-.312 2.05.837 4.123.662 5.998-.475a3.45 3.45 0 0 0 1.812.525c1.837 0 3.336-1.5 3.336-3.337A3.343 3.343 0 0 0 29.913 0a3.344 3.344 0 0 0-3.337 3.336c0 .55.138 1.075.375 1.537-1.35.725-2.761.788-4.223.2-1.275-.512-2.662-.387-4.15.388-2.023 1.05-4.198 3.374-6.197 6.573a14.769 14.769 0 0 0-3.074 2.374A14.886 14.886 0 0 0 4.92 25.005a14.94 14.94 0 0 0 4.386 10.609C12.13 38.45 15.905 40 19.916 40s7.773-1.562 10.597-4.386a14.948 14.948 0 0 0 4.398-10.61Zm-4.998-23.33a1.661 1.661 0 1 1 .001 3.322 1.661 1.661 0 0 1-.001-3.323ZM10.493 15.57c.638-.637 1.325-1.2 2.05-1.687a.833.833 0 0 0 1.125.288.844.844 0 0 0 .312-1.125 13.267 13.267 0 0 1 5.099-1.362c.012.45.375.812.837.812a.85.85 0 0 0 .837-.812c1.8.112 3.524.575 5.099 1.362-.213.4-.075.9.312 1.125a.82.82 0 0 0 .412.112c.275 0 .55-.137.713-.4a13.736 13.736 0 0 1 3.736 3.736.83.83 0 0 0-.287 1.125c.15.263.437.413.724.413a.901.901 0 0 0 .4-.1 13.267 13.267 0 0 1 1.362 5.098.832.832 0 0 0-.812.837c0 .462.363.812.812.825a13.207 13.207 0 0 1-1.362 5.098.837.837 0 0 0-1.024.175 12.437 12.437 0 0 0 1.574-6.085c0-3.337-1.3-6.473-3.661-8.835a12.411 12.411 0 0 0-8.835-3.661c-3.337 0-6.473 1.3-8.835 3.66-2.362 2.388-3.661 5.524-3.661 8.86 0 2.163.55 4.237 1.574 6.086a.834.834 0 0 0-1.024-.175 13.267 13.267 0 0 1-1.362-5.098.85.85 0 0 0 .812-.837.85.85 0 0 0-.812-.838 13.189 13.189 0 0 1 1.362-5.098c.125.063.262.1.4.1.287 0 .562-.15.724-.412a.83.83 0 0 0-.287-1.125 13.222 13.222 0 0 1 1.687-2.062Zm15.359 21.368a13.267 13.267 0 0 1-5.099 1.362.828.828 0 0 0-.625-.774 12.388 12.388 0 0 0 5.874-1.575.817.817 0 0 0-.15.987Zm-11.872 0a.83.83 0 0 0-.15-.987c1.775 1 3.787 1.537 5.873 1.575a.828.828 0 0 0-.624.774 13.267 13.267 0 0 1-5.099-1.361Zm5.936-1.074c-5.973 0-10.834-4.861-10.834-10.834 0-5.974 4.86-10.834 10.834-10.834 5.973 0 10.834 4.86 10.834 10.834 0 5.973-4.86 10.834-10.834 10.834Zm-11.11-3.487a.832.832 0 0 0 .363-.962 12.412 12.412 0 0 0 1.912 2.462 12.304 12.304 0 0 0 2.4 1.874.85.85 0 0 0-.938.363 13.733 13.733 0 0 1-3.736-3.737Zm20.532 2.05c-.637.637-1.325 1.2-2.05 1.687a.825.825 0 0 0-.936-.363 13.22 13.22 0 0 0 2.399-1.874c.75-.75 1.387-1.575 1.912-2.462a.85.85 0 0 0 .362.975c-.487.712-1.05 1.4-1.687 2.037Z"/>
    </svg>
    <svg viewBox="0 0 40 40" id="wheel" xmlns="http://www.w3.org/2000/svg">
        <path d="M20 0C8.95 0 0 8.95 0 20s8.95 20 20 20 20-8.95 20-20S31.05 0 20 0Zm16.275 28.438L24.688 21.75c.112-.288.187-.6.237-.913h13.387a18.138 18.138 0 0 1-2.037 7.6ZM20 23.337A3.345 3.345 0 0 1 16.663 20c0-1.837 1.5-3.337 3.337-3.337 1.837 0 3.337 1.5 3.337 3.337 0 1.837-1.5 3.337-3.337 3.337Zm-16.9 3.8c-.85-2-1.325-4.126-1.425-6.3h13.387c.05.312.138.624.25.912l-11.6 6.688a24.64 24.64 0 0 1-.612-1.3Zm.612-15.576 11.6 6.688c-.112.288-.187.6-.25.913H1.675c.1-2.188.575-4.3 1.425-6.3.188-.438.4-.875.612-1.3Zm21.213 7.6a5.43 5.43 0 0 0-.238-.912l11.588-6.688a18.202 18.202 0 0 1 2.038 7.6H24.925Zm10.525-9.037-11.6 6.7a5.527 5.527 0 0 0-.663-.662l6.7-11.6a18.4 18.4 0 0 1 5.563 5.563Zm-7.013-6.4-6.7 11.588a4.45 4.45 0 0 0-.912-.238V1.688c2.188.1 4.3.575 6.3 1.425.45.187.887.387 1.313.612Zm-9.274-2.037v13.387a5.43 5.43 0 0 0-.913.238L11.562 3.725a18.202 18.202 0 0 1 7.6-2.037ZM7.038 7.038a18.44 18.44 0 0 1 3.087-2.488l6.7 11.6c-.238.2-.462.425-.662.663l-11.6-6.7c.7-1.1 1.525-2.138 2.475-3.075ZM4.55 29.875l11.6-6.7c.2.238.425.462.663.662l-6.7 11.6a18.319 18.319 0 0 1-3.088-2.487 17.79 17.79 0 0 1-2.475-3.075Zm7.013 6.4 6.687-11.587c.288.112.6.187.913.237v13.387a18.138 18.138 0 0 1-7.6-2.037Zm9.274 2.038V24.925a5.43 5.43 0 0 0 .913-.238l6.7 11.588c-.425.225-.863.425-1.3.613a18.4 18.4 0 0 1-6.313 1.425Zm12.125-5.35a18.44 18.44 0 0 1-3.087 2.487l-6.7-11.6c.238-.2.462-.425.662-.663l11.6 6.7c-.7 1.1-1.537 2.138-2.474 3.075Z"/>
        <path d="M20 19.163a.838.838 0 1 0 0 1.675.838.838 0 0 0 0-1.675Z"/>
    </svg>
</svg>
