<svg id="ball" viewBox="0 0 40 40"  xmlns="http://www.w3.org/2000/svg">
<path d="M20 0C8.95 0 0 8.95 0 20C0 31.05 8.95 40 20 40C31.05 40 40 31.05 40 20C40 8.95 31.05 0 20 0ZM20 1.6625C22.475 1.6625 24.875 2.15 27.1375 3.1C29.325 4.025 31.2875 5.35 32.9625 7.025C34.65 8.7125 35.9625 10.675 36.8875 12.85C37.05 13.2375 37.2 13.6375 37.3375 14.0375C25.0125 13.9375 17.6625 11.7875 13.6375 9.975C10.1 8.375 8.4625 6.7625 7.95 6.175C9.4125 4.8875 11.0625 3.8625 12.8625 3.1C15.125 2.15 17.525 1.6625 20 1.6625ZM6.75 7.3375C7.45 8.1125 9.2125 9.775 12.7625 11.4125C15.5 12.675 18.7625 13.675 22.475 14.3875C26.975 15.25 32.1375 15.7 37.8375 15.725C38.175 17.1125 38.3375 18.55 38.3375 20.0125C38.3375 21.475 38.1625 22.9 37.8375 24.3C33.7875 22.625 29.425 21.3 24.85 20.35C20.975 19.5375 16.9375 19 12.85 18.75C7.3 18.4 3.2375 18.6625 1.7125 18.8C1.85 16.7625 2.3125 14.775 3.1125 12.8875C3.975 10.8125 5.2 8.95 6.75 7.3375ZM20 38.3375C17.525 38.3375 15.125 37.85 12.8625 36.9C11.675 36.4 10.55 35.775 9.5 35.0375C10.725 34.6875 12.525 34.2625 14.7625 33.9875C18.4 33.55 23.9125 33.45 30.1875 35.25C29.225 35.8875 28.2125 36.45 27.1375 36.9C24.875 37.85 22.475 38.3375 20 38.3375ZM32.9625 32.9625C32.6 33.325 32.225 33.675 31.8375 34C28.8125 33.025 25.6875 32.4125 22.55 32.1625C19.8625 31.95 17.1625 32.0125 14.5125 32.3375C11.3625 32.725 9.0625 33.3875 7.925 33.775C7.625 33.5125 7.3375 33.2375 7.05 32.9625C5.3625 31.275 4.0375 29.3125 3.125 27.1375C2.225 25.0125 1.75 22.775 1.6875 20.45C2.975 20.3375 7.1375 20.025 12.7875 20.3875C18.95 20.775 28.1625 22.05 37.375 25.8875C37.2375 26.3125 37.075 26.725 36.9 27.125C35.975 29.325 34.65 31.275 32.9625 32.9625Z" />
</svg>
