<svg id="bord"  viewBox="0 0 40 40" xmlns="http://www.w3.org/2000/svg">
<path d="M39.75 12.0184L37.9876 10.2559C37.9001 10.1684 37.7751 10.0934 37.6626 10.0559C38.2126 8.60597 38.4875 7.41851 38.625 6.55603C38.9625 4.4436 38.725 2.74366 37.9876 2.00618C37.3376 1.35621 36.1251 1.21871 35.2251 1.21871C34.1252 1.21871 32.3503 1.4187 29.9378 2.33117C29.9003 2.20618 29.8253 2.09368 29.7378 2.00618L27.9754 0.243742C27.6504 -0.0812473 27.1254 -0.0812473 26.8004 0.243742L23.2631 3.78113C22.9381 4.10611 22.9381 4.6311 23.2631 4.95609L23.8755 5.56857C22.8881 6.24355 21.9006 6.98102 20.9131 7.79349C17.5382 10.5559 14.1884 14.1058 10.9635 18.3431C10.0135 19.5806 9.08852 20.8931 8.15105 22.2555L7.05108 21.1431C6.90109 20.9931 6.68859 20.8931 6.4636 20.8931C6.23861 20.8931 6.02611 20.9806 5.87612 21.1431L2.33873 24.6804C2.18873 24.8304 2.08874 25.0429 2.08874 25.2679C2.08874 25.4929 2.17624 25.7054 2.33873 25.8554L4.10118 27.6178C4.23867 27.7553 4.40117 27.8303 4.57617 27.8553C3.08872 30.3678 1.62626 33.0302 0.213804 35.8426C-0.448675 37.1675 0.588791 38.23 1.15127 38.805L1.16377 38.8175C1.76375 39.405 2.41373 39.9674 3.26371 39.9674C3.5637 39.9674 3.85118 39.8924 4.13867 39.7549C6.96358 38.33 9.62599 36.88 12.1259 35.3926C12.1509 35.5676 12.2259 35.7301 12.3634 35.8676L14.1259 37.63C14.2883 37.7925 14.5008 37.88 14.7133 37.88C14.9258 37.88 15.1383 37.7925 15.3008 37.63L18.8382 34.0926C18.9882 33.9301 19.0882 33.7301 19.0882 33.5051C19.0882 33.2802 19.0007 33.0677 18.8382 32.9177L17.7507 31.8302C22.9881 28.2678 27.3504 24.5554 30.7878 20.7306C32.2503 19.0931 33.4502 17.5557 34.4252 16.1057L35.0377 16.7182C35.2002 16.8807 35.4127 16.9682 35.6251 16.9682C35.8376 16.9682 36.0501 16.8807 36.2126 16.7182L39.75 13.1808C39.9 13.0308 40 12.8058 40 12.5933C40 12.3808 39.9125 12.1684 39.75 12.0184ZM7.05108 23.5055L5.87612 24.6804C6.02611 24.5304 6.11361 24.318 6.11361 24.093C6.11361 23.868 6.02612 23.6555 5.86362 23.5055L6.45111 22.918L7.05108 23.5055ZM4.68866 24.6804C4.83865 24.8304 5.05115 24.9304 5.27614 24.9304C5.50113 24.9304 5.71363 24.8429 5.86362 24.6804L4.68866 25.8554L4.10118 25.2679L4.68866 24.6804ZM14.7133 35.8801L14.1259 35.2926L15.3008 34.1176C15.1508 34.2676 15.0508 34.4801 15.0508 34.7051C15.0508 34.9301 15.1383 35.1426 15.3008 35.2926L14.7133 35.8801ZM16.4758 34.1051C16.3258 33.9551 16.1133 33.8551 15.8883 33.8551C15.6633 33.8551 15.4508 33.9426 15.3008 34.1051L16.4758 32.9302L17.0632 33.5177L16.4758 34.1051ZM27.3754 1.99368L27.9629 2.58117L26.7629 3.78113C26.9254 3.63113 27.0379 3.40614 27.0379 3.16865C27.0379 2.94365 26.9504 2.73116 26.7879 2.58117L27.3754 1.99368ZM25.0255 4.35611L25.613 3.76863C25.763 3.91862 25.9755 4.01862 26.2005 4.01862C26.2755 4.01862 26.3505 4.00612 26.413 3.99362C26.038 4.19361 25.6755 4.4186 25.3005 4.6436L25.0255 4.35611ZM29.4878 19.6806C23.5505 26.2804 14.7633 32.5302 3.3762 38.28C3.3012 38.3175 3.26371 38.3175 3.25121 38.3175C3.01372 38.3175 2.51373 37.8175 2.32624 37.6425C1.56376 36.855 1.63877 36.7175 1.68877 36.5926C5.02616 29.9803 8.58853 24.168 12.2634 19.3306C15.4133 15.1933 18.6632 11.7434 21.9381 9.05595C28.9629 3.30614 33.8627 2.85616 35.2002 2.85616C36.2501 2.85616 36.7126 3.08115 36.7876 3.15615C36.9001 3.28114 37.3001 4.20611 36.9501 6.31854C36.5876 8.64347 35.1002 13.4433 29.4878 19.6806ZM35.6251 14.9558L35.3502 14.6808C35.5876 14.2933 35.8001 13.9308 36.0001 13.5558C35.9751 13.6308 35.9751 13.6933 35.9751 13.7808C35.9751 14.0058 36.0626 14.2183 36.2251 14.3683L35.6251 14.9558ZM37.4001 13.1933C37.2501 13.0433 37.0376 12.9433 36.8126 12.9433C36.5626 12.9433 36.3501 13.0558 36.2001 13.2183L37.4001 12.0184L37.9876 12.6058L37.4001 13.1933Z"/>
<path d="M31.5002 5.28052C31.0377 5.28052 30.6628 5.65551 30.6628 6.11799C30.6628 6.58047 31.0377 6.95546 31.5002 6.95546C31.9627 6.95546 32.3377 6.58047 32.3377 6.11799C32.3377 5.65551 31.9627 5.28052 31.5002 5.28052Z"/>
<path d="M33.8627 7.6438C33.4002 7.6438 33.0252 8.01879 33.0252 8.48127C33.0252 8.94376 33.4002 9.31874 33.8627 9.31874C34.3251 9.31874 34.7001 8.94376 34.7001 8.48127C34.7001 8.01879 34.3251 7.6438 33.8627 7.6438Z"/>
<path d="M29.1503 7.6438C28.6878 7.6438 28.3128 8.01879 28.3128 8.48127C28.3128 8.94376 28.6878 9.31874 29.1503 9.31874C29.6128 9.31874 29.9878 8.94376 29.9878 8.48127C29.9753 8.01879 29.6128 7.6438 29.1503 7.6438Z"/>
<path d="M31.5002 10.0059C31.0377 10.0059 30.6628 10.3808 30.6628 10.8433C30.6628 11.3058 31.0377 11.6808 31.5002 11.6808C31.9627 11.6808 32.3377 11.3058 32.3377 10.8433C32.3377 10.3683 31.9627 10.0059 31.5002 10.0059Z"/>
<path d="M10.5884 26.2051C10.1259 26.2051 9.75096 26.5801 9.75096 27.0426C9.75096 27.505 10.1259 27.88 10.5884 27.88C11.0509 27.88 11.4259 27.505 11.4259 27.0426C11.4259 26.5801 11.0509 26.2051 10.5884 26.2051Z"/>
<path d="M12.9509 28.5549C12.4884 28.5549 12.1134 28.9299 12.1134 29.3924C12.1134 29.8549 12.4884 30.2299 12.9509 30.2299C13.4134 30.2299 13.7883 29.8549 13.7883 29.3924C13.7758 28.9299 13.4009 28.5549 12.9509 28.5549Z"/>
<path d="M8.22599 28.5549C7.7635 28.5549 7.38852 28.9299 7.38852 29.3924C7.38852 29.8549 7.7635 30.2299 8.22599 30.2299C8.68847 30.2299 9.06346 29.8549 9.06346 29.3924C9.06346 28.9299 8.68847 28.5549 8.22599 28.5549Z"/>
<path d="M10.5884 30.9182C10.1259 30.9182 9.75096 31.2932 9.75096 31.7557C9.75096 32.2182 10.1259 32.5932 10.5884 32.5932C11.0509 32.5932 11.4259 32.2182 11.4259 31.7557C11.4259 31.2932 11.0509 30.9182 10.5884 30.9182Z"/>
</svg>
