<svg id="cart"  viewBox="0 0 18 24"  xmlns="http://www.w3.org/2000/svg">
<path d="M17.129 6.5561H14.081V5.3861C14.08 2.5161 11.787 0.204102 8.99999 0.204102C6.21299 0.204102 3.91999 2.5161 3.91999 5.3841V6.5551H0.86999C0.773993 6.55456 0.678851 6.57317 0.590131 6.60984C0.501411 6.64651 0.420895 6.7005 0.353293 6.76866C0.285691 6.83682 0.232361 6.91778 0.196423 7.0068C0.160484 7.09582 0.142659 7.19111 0.14399 7.2871V21.9211C0.14399 22.9751 0.98599 23.8231 2.03099 23.8231H15.967C16.2159 23.8226 16.4623 23.7729 16.692 23.677C16.9216 23.581 17.1301 23.4407 17.3054 23.2639C17.4808 23.0872 17.6195 22.8776 17.7136 22.6472C17.8077 22.4168 17.8554 22.17 17.854 21.9211V7.2881C17.854 6.8781 17.534 6.5561 17.128 6.5561H17.129ZM5.37099 5.3561C5.37099 3.3071 6.99699 1.6401 8.99999 1.6401C11.003 1.6401 12.629 3.3081 12.629 5.3571V6.5271H5.37099V5.3571V5.3561ZM15.968 22.3611H2.03199C1.91698 22.3578 1.80766 22.3103 1.72667 22.2286C1.64569 22.1469 1.59925 22.0371 1.59699 21.9221V8.0201H3.91899V10.0591C3.91899 10.4691 4.23899 10.7901 4.64499 10.7901C4.7409 10.7906 4.83596 10.7721 4.92461 10.7355C5.01327 10.6988 5.09374 10.6449 5.16133 10.5769C5.22892 10.5088 5.28227 10.428 5.31826 10.3391C5.35426 10.2502 5.37219 10.155 5.37099 10.0591V8.0191H12.629V10.0591C12.629 10.4691 12.949 10.7901 13.355 10.7901C13.4509 10.7906 13.546 10.7721 13.6346 10.7355C13.7233 10.6988 13.8037 10.6449 13.8713 10.5769C13.9389 10.5088 13.9923 10.428 14.0283 10.3391C14.0643 10.2502 14.0822 10.155 14.081 10.0591V8.0191H16.403V21.9221C16.4007 22.0371 16.3543 22.1469 16.2733 22.2286C16.1923 22.3103 16.083 22.3578 15.968 22.3611V22.3611Z" />
</svg>
