<svg id="charger"  viewBox="0 0 40 40" xmlns="http://www.w3.org/2000/svg">
<path d="M35.3479 8.32757V6.66461C35.3479 6.20196 34.9728 5.82679 34.5102 5.82679C34.0475 5.82679 33.6724 6.20196 33.6724 6.66461V8.32757H32.0094V6.66461C32.0094 6.20196 31.6343 5.82679 31.1716 5.82679C30.709 5.82679 30.3339 6.20196 30.3339 6.66461V8.32757H28.6708V10.8284C28.6708 12.8415 30.1088 14.5295 32.0094 14.9172V29.1716C32.0094 30.5471 30.884 31.6724 29.5086 31.6724C28.1332 31.6724 27.0078 30.5471 27.0078 29.1716V1.66304C27.0078 0.737752 26.2576 0 25.3448 0H5.33854C4.41325 0 3.67552 0.750256 3.67552 1.66304V34.9984C2.75023 34.9984 2 35.7487 2 36.6615V40H28.6708V36.6615C28.6708 35.7362 27.9206 34.9984 27.0078 34.9984V32.4977C27.708 33.0228 28.5708 33.3354 29.5086 33.3354C31.8093 33.3354 33.6724 31.4724 33.6724 29.1716V14.9172C35.573 14.5295 37.011 12.854 37.011 10.8284V8.32757H35.3479ZM25.3448 1.65053V16.6552H5.33854V1.65053H25.3448ZM27.0078 38.337H3.66302V36.674H27.0078V38.337ZM5.33854 34.9984V18.3307H25.3448V34.9984H5.33854ZM35.3479 10.8284C35.3479 12.2038 34.2226 13.3291 32.8471 13.3291C31.4717 13.3291 30.3464 12.2038 30.3464 10.8284V9.99061H35.3479V10.8284Z" />
<path d="M16.8047 25.2081C16.4796 24.883 15.9544 24.883 15.6293 25.2081L14.454 26.3835L12.0907 24.0202C11.7656 23.6951 11.2405 23.6951 10.9154 24.0202C10.5903 24.3453 10.5903 24.8705 10.9154 25.1956L13.8663 28.1465C14.1914 28.4716 14.7166 28.4716 15.0417 28.1465L16.217 26.9712L18.5803 29.3344C18.9054 29.6595 19.4305 29.6595 19.7556 29.3344C20.0807 29.0093 20.0807 28.4842 19.7556 28.1591L16.8047 25.2081Z" />
</svg>
