<svg id="deck"  viewBox="0 0 40 40"  xmlns="http://www.w3.org/2000/svg">
<path d="M38.1581 2.875C37.9832 2.6875 37.8332 2.5125 37.7082 2.35C37.6582 2.2875 37.6082 2.225 37.5457 2.1875C37.3832 2.0625 37.1957 1.9 37.0082 1.725C36.2082 1 35.0957 0 33.1332 0C31.2707 0 28.9707 0.925 26.1082 2.825C22.7457 5.05 18.5957 8.6375 13.5707 13.6625C8.60817 18.625 4.97067 22.875 2.74567 26.275C0.845667 29.2 -0.0793457 31.575 -0.0793457 33.5375C-0.0793457 35.825 1.17067 37.0625 2.00817 37.8875C2.84567 38.725 4.10817 40 6.38317 40C8.33317 40 10.6957 39.075 13.6082 37.175C16.9957 34.9625 21.2207 31.3375 26.1582 26.4C33.7332 18.825 37.9832 13.325 39.3582 9.3875C40.6707 5.675 39.1581 3.9875 38.1581 2.875ZM37.7957 8.8125C36.5207 12.4625 32.2707 17.9125 24.9832 25.2C16.2707 33.9 10.0082 38.3125 6.37066 38.3125C4.78316 38.3125 3.92066 37.45 3.17066 36.7C2.27066 35.8 1.58316 35 1.57066 33.525C1.55816 29.8625 5.99566 23.575 14.7332 14.825C23.5457 6.0125 29.6582 1.65 33.1207 1.65C34.4457 1.65 35.1707 2.3125 35.8707 2.95C36.0582 3.125 36.2457 3.2875 36.4332 3.4375C36.5832 3.625 36.7332 3.8 36.9081 3.9875C37.8206 5 38.7707 6.05 37.7957 8.8125Z" />
<path d="M20.7582 25.5249C20.4707 24.4499 19.7832 23.5499 18.8207 22.9999C18.5457 22.8374 18.2582 22.7124 17.9582 22.6249C17.5582 22.3124 17.1207 22.0124 16.6582 21.7499C14.9457 20.7624 13.4581 19.8999 11.9956 19.8999C10.6831 19.8999 9.60814 20.6124 8.79564 22.0249C7.85814 23.6374 7.89565 25.0874 8.88315 26.3374C9.68315 27.3499 11.0457 28.1374 12.4832 28.9624C12.9457 29.2249 13.4207 29.4624 13.8832 29.6499C14.1082 29.8624 14.3706 30.0499 14.6456 30.2124C15.2831 30.5749 15.9956 30.7749 16.7206 30.7749C18.1956 30.7749 19.5831 29.9874 20.3206 28.6999C20.3206 28.6999 20.3207 28.6874 20.3332 28.6874C20.3582 28.6499 20.3831 28.6124 20.3956 28.5749C20.9081 27.6374 21.0332 26.5624 20.7582 25.5249ZM16.7331 24.1124C17.1706 24.1124 17.5956 24.2249 17.9831 24.4499C18.5581 24.7874 18.9706 25.3249 19.1456 25.9624C19.3206 26.6124 19.2332 27.2749 18.8957 27.8624C18.4457 28.6374 17.6206 29.1124 16.7331 29.1124C16.2956 29.1124 15.8706 28.9999 15.4831 28.7749C14.9081 28.4374 14.4957 27.8999 14.3207 27.2624C14.1457 26.6124 14.2331 25.9499 14.5706 25.3624C15.0081 24.5874 15.8456 24.1124 16.7331 24.1124ZM11.8831 26.6749L11.9332 26.5749C12.1582 26.1749 12.0207 25.6624 11.6332 25.4374C11.2582 25.2249 10.7832 25.3249 10.5332 25.6749C10.4082 25.5499 10.2832 25.4249 10.1832 25.2999C9.77066 24.7874 9.49563 24.1249 10.2331 22.8499C10.8956 21.6999 11.5207 21.5624 11.9832 21.5624C12.2457 21.5624 12.5206 21.6124 12.8206 21.6999C12.6081 22.0999 12.7456 22.5999 13.1331 22.8249C13.2581 22.8999 13.4082 22.9374 13.5457 22.9374C13.8332 22.9374 14.1081 22.7874 14.2706 22.5249L14.3582 22.3749C14.5957 22.4999 14.8456 22.6374 15.0831 22.7749C14.2706 23.1249 13.5707 23.7249 13.1082 24.5249C12.6457 25.3124 12.4706 26.2124 12.5831 27.0999C12.3456 26.9624 12.1081 26.8124 11.8831 26.6749Z" />
<path d="M29.7331 13.8246C29.5456 13.3496 29.3081 12.8746 29.0456 12.4121C27.7456 10.1621 26.5206 8.03711 24.3331 8.03711C23.6331 8.03711 22.9081 8.26211 22.1081 8.71211C20.4956 9.64961 19.7956 10.9121 20.0331 12.4871C20.2206 13.7621 21.0081 15.1246 21.8331 16.5621C22.0956 17.0246 22.3956 17.4621 22.7081 17.8621C22.7956 18.1621 22.9206 18.4496 23.0831 18.7246C23.8206 20.0121 25.2081 20.8121 26.6956 20.8121C27.4206 20.8121 28.1456 20.6246 28.7706 20.2496C28.8081 20.2246 28.8456 20.1996 28.8831 20.1746C30.7831 18.9996 31.4206 16.4996 30.2956 14.5621C30.1331 14.2996 29.9456 14.0496 29.7331 13.8246ZM28.8456 15.4121C29.5331 16.5996 29.1206 18.1371 27.9331 18.8246C27.5581 19.0496 27.1206 19.1621 26.6831 19.1621C25.7956 19.1621 24.9582 18.6871 24.5207 17.9121C24.1832 17.3371 24.0956 16.6621 24.2706 16.0121C24.4456 15.3621 24.8581 14.8246 25.4331 14.4996C25.8081 14.2746 26.2456 14.1621 26.6831 14.1621C27.5706 14.1621 28.3956 14.6371 28.8456 15.4121ZM22.9331 10.1621C23.4581 9.86211 23.9207 9.69961 24.3207 9.69961C24.8332 9.69961 25.2831 9.96211 25.7456 10.4621C25.3956 10.7121 25.2956 11.1871 25.5081 11.5621C25.6581 11.8246 25.9456 11.9746 26.2331 11.9746C26.3706 11.9746 26.5206 11.9371 26.6456 11.8621L26.7331 11.8121C26.8706 12.0371 27.0206 12.2746 27.1706 12.5246C27.0081 12.4996 26.8457 12.4996 26.6707 12.4996C25.9457 12.4996 25.2207 12.6871 24.5957 13.0621C23.8082 13.5121 23.1956 14.1996 22.8456 15.0246C22.7081 14.7621 22.5707 14.5246 22.4457 14.2996L22.5831 14.2121C22.9831 13.9871 23.1207 13.4746 22.8832 13.0746C22.6582 12.6871 22.1581 12.5496 21.7581 12.7621C21.4206 11.5871 21.7331 10.8621 22.9331 10.1621Z" />
</svg>
