<svg id="display" viewBox="0 0 40 40"  xmlns="http://www.w3.org/2000/svg">
<path d="M38.3493 4.99976H1.66301C0.750232 4.99976 0 5.73749 0 6.66277V30.0075C0 30.9328 0.750232 31.6705 1.66301 31.6705H13.3291V33.3335H10.0031C9.54044 33.3335 9.16533 33.7086 9.16533 34.1713C9.16533 34.6339 9.54044 35.009 10.0031 35.009H30.0093C30.4719 35.009 30.847 34.6339 30.847 34.1713C30.847 33.7086 30.4719 33.3335 30.0093 33.3335H26.6707V31.6705H38.3368C39.2621 31.6705 39.9998 30.9203 39.9998 30.0075V6.66277C40.0123 5.73749 39.2621 4.99976 38.3493 4.99976ZM1.66301 6.66277H38.3368V26.6689H1.66301V6.66277ZM25.0077 33.3335H15.0046V31.6705H25.0077V33.3335ZM20.0062 30.0075H1.66301V28.3445H20.0062H38.3493V30.0075H20.0062Z" />
<path d="M20.844 29.1699C20.844 28.7073 20.4689 28.3322 20.0062 28.3322C19.5436 28.3322 19.1685 28.7073 19.1685 29.1699C19.1685 29.6326 19.5436 30.0077 20.0062 30.0077C20.4689 30.0077 20.844 29.6326 20.844 29.1699Z" />
</svg>
