<svg id="flash" viewBox="0 0 41 40" xmlns="http://www.w3.org/2000/svg">
<path d="M16.3618 34.2877L19.8868 29.3377L26.4618 20.1253L28.3368 17.4878H25.0993H22.7244L23.3618 11.8128L24.0618 5.61279L20.3619 10.6378L13.5744 19.8628L11.6244 22.5128H14.9244H17.3494L16.8619 28.2252L16.3618 34.2877ZM14.9244 20.8628L21.7118 11.6253L20.8618 19.1627H25.0993L18.5244 28.3753L19.1619 20.8503H14.9244V20.8628Z"/>
<path d="M12.8744 3.11248C15.1369 2.16248 17.5369 1.67499 20.0119 1.67499C22.4869 1.67499 24.8869 2.16248 27.1494 3.11248C29.3369 4.03748 31.2869 5.36249 32.9743 7.03749C33.3868 7.44999 33.7868 7.88749 34.1493 8.33749H30.0119C29.5494 8.33749 29.1743 8.71247 29.1743 9.17497C29.1743 9.63747 29.5494 10.0125 30.0119 10.0125H35.8243C35.8868 10.0125 35.9368 10.0125 35.9868 9.99997C35.9993 9.99997 36.0118 9.99996 36.0118 9.98746C36.0243 9.98746 36.0493 9.97499 36.0618 9.97499C36.0618 9.97499 36.0619 9.97499 36.0744 9.97499C36.3744 9.87499 36.6118 9.61249 36.6493 9.27499C36.6493 9.23749 36.6493 9.21247 36.6493 9.17497V3.33751C36.6493 2.87501 36.2744 2.49999 35.8119 2.49999C35.3494 2.49999 34.9743 2.87501 34.9743 3.33751V6.74997C31.3119 2.61248 25.9619 0 19.9994 0C8.98691 0 0.0494505 8.98747 -0.000549316 19.9999C-0.000549316 20.4624 0.374447 20.8375 0.836946 20.8375C1.29944 20.8375 1.67442 20.4624 1.67442 19.9999C1.67442 17.525 2.16195 15.125 3.11195 12.8625C4.03695 10.675 5.36192 8.72498 7.03692 7.03749C8.73691 5.34999 10.6994 4.03748 12.8744 3.11248Z" />
<path d="M39.1744 19.1626C38.7119 19.1626 38.3369 19.5376 38.3369 20.0001C38.3369 22.4751 37.8494 24.8751 36.8994 27.1376C35.9744 29.3251 34.6494 31.2751 32.9744 32.9626C31.2869 34.6501 29.3244 35.9626 27.1494 36.8876C24.8869 37.8376 22.487 38.3251 20.012 38.3251C17.537 38.3251 15.137 37.8376 12.8745 36.8876C10.687 35.9626 8.737 34.6376 7.0495 32.9626C6.63701 32.5501 6.237 32.1126 5.8745 31.6626H10.012C10.4745 31.6626 10.8495 31.2876 10.8495 30.8251C10.8495 30.3626 10.4745 29.9876 10.012 29.9876H4.19951C4.13701 29.9876 4.08701 29.9876 4.03701 30.0001C4.02451 30.0001 4.01202 30.0001 4.01202 30.0126C3.99952 30.0126 3.97451 30.0251 3.96201 30.0251C3.96201 30.0251 3.962 30.0251 3.9495 30.0251C3.6495 30.1251 3.41201 30.3876 3.37451 30.7251C3.37451 30.7626 3.37451 30.7876 3.37451 30.8251V36.6625C3.37451 37.125 3.74949 37.5001 4.21199 37.5001C4.67449 37.5001 5.0495 37.125 5.0495 36.6625V33.2501C8.71199 37.3876 14.062 40.0001 20.0245 40.0001C31.0369 40.0001 39.9744 31.0126 40.0244 20.0001C40.0119 19.5376 39.6369 19.1626 39.1744 19.1626Z" />
</svg>
