<svg id="headlight" viewBox="0 0 40 40" xmlns="http://www.w3.org/2000/svg">
<path d="M29.8 32.9628L26.2626 29.4253C25.9376 29.1003 25.4126 29.1003 25.0876 29.4253C24.7626 29.7503 24.7626 30.2753 25.0876 30.6003L28.625 34.1378C28.95 34.4628 29.475 34.4628 29.8 34.1378C30.125 33.8128 30.125 33.2878 29.8 32.9628Z" />
<path d="M29.825 20.8376H34.825C35.2875 20.8376 35.6624 20.4626 35.6624 20.0001C35.6624 19.5376 35.2875 19.1626 34.825 19.1626H29.825C29.3625 19.1626 28.9875 19.5376 28.9875 20.0001C28.9875 20.4626 29.3625 20.8376 29.825 20.8376Z" />
<path d="M25.0876 10.5751C25.4126 10.9001 25.9376 10.9001 26.2626 10.5751L29.8 7.03764C30.125 6.71264 30.125 6.18765 29.8 5.86265C29.475 5.53765 28.95 5.53765 28.625 5.86265L25.0876 9.40014C24.7626 9.72514 24.7626 10.2501 25.0876 10.5751Z" />
<path d="M14.8249 5.8375C14.8249 6.3 15.1999 6.675 15.6624 6.675C16.1249 6.675 16.4999 6.3 16.4999 5.8375V0.837498C16.4999 0.374998 16.1249 0 15.6624 0C15.1999 0 14.8249 0.374998 14.8249 0.837498V5.8375Z" />
<path d="M16.4874 39.1627V34.1627C16.4874 33.7002 16.1124 33.3252 15.6499 33.3252C15.1874 33.3252 14.8124 33.7002 14.8124 34.1627V39.1627C14.8124 39.6252 15.1874 40.0002 15.6499 40.0002C16.1249 40.0002 16.4874 39.6252 16.4874 39.1627Z" />
<path d="M23.9125 11.7499C19.35 7.1999 11.975 7.1999 7.4125 11.7499C2.8625 16.3124 2.8625 23.6874 7.4125 28.2499C11.975 32.8124 19.35 32.8124 23.9125 28.2499C28.4625 23.6999 28.4625 16.3124 23.9125 11.7499ZM15.6625 29.9999C12.9875 29.9999 10.475 28.9624 8.5875 27.0749C6.7 25.1874 5.66247 22.6749 5.66247 19.9999C5.66247 17.3249 6.7 14.8124 8.5875 12.9249C10.475 11.0374 12.9875 9.9999 15.6625 9.9999C18.3375 9.9999 20.85 11.0374 22.7375 12.9249C24.625 14.8124 25.6625 17.3249 25.6625 19.9999C25.6625 22.6749 24.625 25.1874 22.7375 27.0749C20.8375 28.9624 18.325 29.9999 15.6625 29.9999Z"/>
<path d="M17.0624 26.0877C13.6999 22.7252 13.6999 17.2752 17.0624 13.9127C17.8124 13.1627 18.675 12.5752 19.6 12.1502C16.425 10.7127 12.5749 11.3002 9.96243 13.9127C6.59993 17.2752 6.59993 22.7252 9.96243 26.0877C12.5624 28.6877 16.425 29.2752 19.6 27.8502C18.675 27.4252 17.8124 26.8377 17.0624 26.0877ZM14.85 26.8377C13.4375 26.5877 12.1499 25.9252 11.1374 24.9127C9.82493 23.6002 9.09992 21.8627 9.09992 20.0002C9.09992 18.1502 9.82493 16.4002 11.1374 15.0877C12.1499 14.0752 13.4375 13.4002 14.85 13.1627C15.0875 13.1252 15.325 13.0877 15.55 13.0752C14.725 13.9752 14.075 15.0002 13.6125 16.1377C13.1125 17.3627 12.8624 18.6752 12.8624 20.0002C12.8624 21.3377 13.1125 22.6377 13.6125 23.8627C14.075 24.9877 14.725 26.0252 15.55 26.9252C15.325 26.9127 15.0875 26.8752 14.85 26.8377Z" />
</svg>
