<svg id="leaf" viewBox="0 0 41 40"  xmlns="http://www.w3.org/2000/svg">
<path d="M37.3625 9.1C37.625 8.525 38.0125 7.60001 38.35 6.61251C39.175 4.13751 39.1625 2.52501 38.325 1.68751C37.9 1.26251 37.275 1.05 36.45 1.05C34.65 1.05 32.0875 2.11249 30.9 2.64999C30.1375 1.71249 28.5 0 26.725 0C26.5625 0 26.4 0.0124985 26.25 0.0374985C24.675 0.324998 23.55 2.58748 22.125 5.76248C21.8625 6.36248 21.525 7.10001 21.2625 7.58751C21.2375 7.56251 21.225 7.525 21.2125 7.5C20.75 6.775 19.9875 5.57499 18.5375 5.57499C18.25 5.57499 17.95 5.62498 17.65 5.72498C15.8 6.32498 15.0125 9.44998 14.225 13.1875C14.15 13.5125 14.075 13.875 14.0125 14.2125C13.475 13.525 12.6625 12.7125 11.35 12.7125C11.125 12.7125 10.8875 12.7375 10.65 12.7875C9.72502 12.9875 9.06252 14.1125 8.37502 16.6875C7.91252 18.375 7.46248 20.7 7.01248 23.5625C6.34998 27.7375 5.90001 31.9 5.78751 33.0375L0.250015 38.575C0.100015 38.725 0 38.9375 0 39.1625C0 39.625 0.374979 40 0.837479 40C1.06248 40 1.27502 39.9125 1.42502 39.75L6.96251 34.2125C8.08751 34.1 12.2625 33.65 16.4375 32.9875C19.3125 32.5375 21.625 32.075 23.3125 31.6125C25.8875 30.9125 27.025 30.2625 27.2125 29.3375C27.4 28.4375 27.2375 27.6125 26.7125 26.9C26.4375 26.525 26.1 26.225 25.7875 25.9875C26.1125 25.9125 26.475 25.8375 26.8125 25.775C30.5375 25 33.675 24.2 34.275 22.35C34.55 21.475 34.425 20.65 33.9 19.9625C33.5 19.4375 32.9375 19.0875 32.5 18.8C32.475 18.7875 32.45 18.7625 32.4125 18.75C32.8875 18.5 33.6375 18.1625 34.2375 17.8875C37.4125 16.4625 39.6875 15.325 39.9625 13.7625C40.325 11.8 38.3875 9.9375 37.3625 9.1ZM38.325 13.45C38.3125 13.5 38.2 13.9375 36.8375 14.75C35.8625 15.325 34.6375 15.875 33.55 16.3625C31.6875 17.2 30.85 17.5875 30.55 18.15C30.2875 18.6375 30.3875 19.175 30.8 19.6C31.0125 19.825 31.3 20 31.6 20.2C32.6 20.8375 32.9 21.1625 32.6875 21.8375C32.6375 21.975 32.35 22.5 30.5625 23.1125C29.2875 23.55 27.725 23.875 26.475 24.1375C24.4625 24.5625 23.7875 24.7 23.525 25.2875C23.4375 25.4875 23.275 26.0125 23.8 26.55C23.9625 26.725 24.1625 26.8625 24.4 27.0375C24.7375 27.275 25.125 27.55 25.3625 27.8875C25.6 28.2125 25.6625 28.5375 25.6 28.9375C25.4125 29.1375 24.0875 30.1375 15.7125 31.425C13.1375 31.825 10.6 32.1375 8.85002 32.3375L24.5375 16.65C24.6875 16.5 24.7875 16.2875 24.7875 16.0625C24.7875 15.6 24.4125 15.225 23.95 15.225C23.725 15.225 23.5125 15.3125 23.3625 15.475L7.67502 31.1625C7.87502 29.4125 8.18749 26.875 8.58749 24.3C9.87499 15.925 10.875 14.6 11.075 14.4125C11.175 14.4 11.275 14.3875 11.3625 14.3875C12.05 14.3875 12.4875 14.9125 12.975 15.6125C13.3125 16.0875 13.675 16.5875 14.2875 16.5875C14.4375 16.5875 14.5875 16.55 14.7125 16.4875C15.3 16.225 15.4375 15.5375 15.8625 13.5375C16.125 12.2875 16.45 10.725 16.8875 9.45C17.5 7.6625 18.0125 7.37498 18.1625 7.32498C18.3 7.27498 18.425 7.2625 18.5375 7.2625C19.025 7.2625 19.375 7.73751 19.8 8.41251C20.1625 8.97501 20.5625 9.59999 21.2875 9.59999C21.475 9.59999 21.6625 9.55001 21.85 9.46251C22.4125 9.16251 22.8 8.32502 23.6375 6.46252C24.125 5.37502 24.675 4.15001 25.25 3.17501C26.0625 1.81251 26.5 1.68751 26.55 1.68751C26.6125 1.67501 26.6625 1.675 26.725 1.675C27.8125 1.675 29.2875 3.2125 29.9625 4.175L30.375 4.7625L31.025 4.43748C31.9875 3.96248 34.8375 2.71252 36.45 2.71252C36.85 2.71252 37.0625 2.78751 37.1375 2.86251C37.1625 2.88751 37.65 3.41251 36.7625 6.06251C36.2625 7.58751 35.575 8.96249 35.5625 8.97499L35.2375 9.62502L35.825 10.0375C36.7375 10.6625 38.5375 12.325 38.325 13.45Z" />
</svg>
