<svg id="logo" viewBox="0 0 125 24"  xmlns="http://www.w3.org/2000/svg">
<g clip-path="url(#clip0_1512_2634)">
<path d="M33.208 0.0600586L31.2285 5.70712H15.0677C14.4415 5.69574 13.8239 5.8566 13.2802 6.1727C12.7583 6.484 12.4284 6.84809 12.2905 7.26497L6.44607 24H0L7.09067 3.54988C7.89822 1.22424 9.66104 0.0609688 12.3791 0.0600586H33.208Z" />
<path d="M59.0957 4.83603L52.4482 24H32.6238C31.5405 24 30.7347 23.6386 30.2065 22.9159C29.7651 22.2933 29.5467 21.511 29.5512 20.5689C29.545 19.9641 29.645 19.363 29.8466 18.7939L32.3874 11.3596C32.9989 9.55374 34.2496 8.6508 36.1396 8.6508H51.3255L51.7686 7.25269C51.825 7.09032 51.855 6.91968 51.8573 6.74751C51.8573 6.05391 51.4141 5.70712 50.5278 5.70712H34.3078L36.2591 0.0600586H56.2298C58.315 0.0600586 59.3575 1.12139 59.3575 3.24404C59.362 3.78615 59.2734 4.3249 59.0957 4.83603V4.83603ZM49.3755 14.2979H39.2136C38.2869 14.2979 37.6764 14.7248 37.3818 15.5785L36.9977 16.6148C36.9231 16.8515 36.8833 17.0981 36.8796 17.3467C36.8796 18.0184 37.2144 18.3538 37.8841 18.3529H47.9883L49.3755 14.2979Z" />
<path d="M70.2971 0L61.9709 24H55.5248L63.8564 0H70.2971Z" />
<path d="M96.1538 6.39798L90.0113 24H83.6297L89.27 7.56945C89.3284 7.3747 89.3582 7.17228 89.3586 6.96869C89.3586 6.12764 89.0139 5.70712 88.3245 5.70712H79.7566C78.5928 5.70712 77.8148 6.30787 77.4226 7.50937L71.7823 24H65.3362L73.5845 0.0600586H93.2907C95.6355 0.0600586 96.8074 1.09135 96.8065 3.15393C96.8065 4.01591 96.5889 5.09726 96.1538 6.39798Z" />
<path d="M124.409 6.08532L121.336 14.8986H102.723L102.221 16.4442C102.098 16.753 102.028 17.0808 102.014 17.4136C102.014 18.0398 102.408 18.3529 103.196 18.3529H120.155L118.205 24H99.9141C96.4466 24 94.7133 22.8986 94.7142 20.6959C94.7142 20.0742 94.9309 19.123 95.3642 17.8423L100.774 1.92239C101.206 0.681745 102.26 0.0609688 103.935 0.0600586H121.277C123.759 0.0600586 125 1.09954 125 3.1785C125 3.95675 124.803 4.92569 124.409 6.08532ZM117.525 7.25542C117.565 7.13072 117.585 7.00022 117.584 6.86902C117.584 6.09442 117.102 5.70712 116.137 5.70712H107.864C107.155 5.70712 106.653 5.75672 106.357 5.85594C106.16 5.92742 105.982 6.04567 105.838 6.20093C105.694 6.35619 105.589 6.54401 105.53 6.74887L104.732 9.25155H116.875L117.525 7.25542Z" />
</g>
</svg>
