<svg id="mountain" viewBox="0 0 41 40"  xmlns="http://www.w3.org/2000/svg">
<path d="M39.836 31.1596L26.6819 14.717V13.3415H31.6835C32.1461 13.3415 32.5212 12.9664 32.5212 12.5038C32.5212 12.2662 32.4212 12.0411 32.2586 11.8911L31.2083 10.8407L32.2836 9.76541C32.5212 9.52784 32.5963 9.16522 32.4587 8.85263C32.3337 8.54003 32.0211 8.33997 31.6835 8.33997H25.8441C25.3815 8.33997 25.0064 8.71508 25.0064 9.17773V12.5038V14.7295L15.5659 27.771L8.92635 19.4809C8.7638 19.2809 8.51375 19.1683 8.25117 19.1683C7.98858 19.1683 7.75098 19.3059 7.60094 19.506L0.161097 29.6841C-0.113989 30.0593 -0.0264432 30.5719 0.33617 30.847C0.486217 30.9595 0.66129 31.0095 0.823841 31.0095C1.08642 31.0095 1.33647 30.897 1.49902 30.6719L5.70032 24.9327L5.92538 25.3703C6.02541 25.5704 6.20048 25.7204 6.41305 25.7829C6.62562 25.8579 6.8507 25.8329 7.05076 25.7329L8.35114 25.0827L9.6516 25.7329C9.76413 25.7954 9.90166 25.8204 10.0267 25.8204C10.2143 25.8204 10.4018 25.7579 10.5518 25.6329L11.2771 25.0452L14.5781 29.159L7.68847 38.6744C7.41339 39.0496 7.50087 39.5747 7.87599 39.8373C8.02603 39.9498 8.1886 39.9999 8.36366 39.9999C8.62624 39.9999 8.87629 39.8748 9.03884 39.6497L21.2302 22.8195L22.8807 24.0074C23.1308 24.1824 23.4559 24.2074 23.7434 24.0699L26.7069 22.5944L29.6703 24.0699C29.7953 24.1324 29.9204 24.1574 30.0455 24.1574C30.308 24.1574 30.5706 24.0324 30.7332 23.8073L31.2583 23.0571L38.5606 32.1849C38.8482 32.5475 39.3734 32.5975 39.736 32.31C40.0736 32.0349 40.1236 31.5222 39.836 31.1596ZM9.90161 24.0199L8.7138 23.4322C8.47623 23.3196 8.2011 23.3196 7.96352 23.4322L7.03825 23.8948L6.80067 23.4322L8.30115 21.3815L10.2018 23.7573L9.90161 24.0199ZM29.4328 11.4284L29.6828 11.6785H26.6944V10.003H29.6828L29.4328 10.2531C29.1077 10.5782 29.1077 11.1033 29.4328 11.4284ZM29.7454 22.2693L27.057 20.9189C26.8194 20.8064 26.5444 20.8064 26.3068 20.9189L23.4183 22.3568L22.1805 21.4691L25.8816 16.3675L30.1454 21.6941L29.7454 22.2693Z"/>
<path d="M10.8519 7.50248C10.8519 5.66441 9.35146 4.16394 7.51339 4.16394C5.67531 4.16394 4.17487 5.66441 4.17487 7.50248C4.17487 9.34056 5.67531 10.841 7.51339 10.841C9.35146 10.841 10.8519 9.34056 10.8519 7.50248ZM7.51339 9.1655C6.5881 9.1655 5.85035 8.41527 5.85035 7.50248C5.85035 6.5897 6.6006 5.83946 7.51339 5.83946C8.42617 5.83946 9.17643 6.5897 9.17643 7.50248C9.17643 8.42777 8.42617 9.1655 7.51339 9.1655Z" />
<path d="M7.5134 3.33854C7.97604 3.33854 8.35114 2.96343 8.35114 2.50078V0.837762C8.35114 0.375117 7.97604 0 7.5134 0C7.05076 0 6.67566 0.375117 6.67566 0.837762V2.50078C6.67566 2.96343 7.05076 3.33854 7.5134 3.33854Z" />
<path d="M6.67566 12.504V14.167C6.67566 14.6297 7.05076 15.0048 7.5134 15.0048C7.97604 15.0048 8.35114 14.6297 8.35114 14.167V12.504C8.35114 12.0414 7.97604 11.6663 7.5134 11.6663C7.05076 11.6663 6.67566 12.0414 6.67566 12.504Z" />
<path d="M4.28739 3.58875C4.43744 3.85133 4.72505 4.00138 5.01264 4.00138C5.15018 4.00138 5.30025 3.96387 5.42529 3.88884C5.82542 3.66377 5.96295 3.15111 5.72537 2.75099L4.88763 1.31304C4.66256 0.912912 4.14986 0.775369 3.74973 1.01294C3.34961 1.23801 3.21208 1.75067 3.44965 2.1508L4.28739 3.58875Z" />
<path d="M10.1268 13.692C10.2768 13.9546 10.5643 14.1046 10.8519 14.1046C10.9895 14.1046 11.1395 14.0671 11.2646 13.9921C11.6647 13.767 11.8022 13.2544 11.5647 12.8543L10.7269 11.4163C10.5019 11.0162 9.98915 10.8786 9.58903 11.1162C9.1889 11.3413 9.05137 11.8539 9.28895 12.2541L10.1268 13.692Z" />
<path d="M1.32395 4.88913L2.76193 5.72689C2.88697 5.80192 3.03704 5.83943 3.17458 5.83943C3.46217 5.83943 3.7372 5.68938 3.89976 5.4268C4.12483 5.02667 3.9998 4.51401 3.59967 4.28894L2.14925 3.45118C1.74913 3.22611 1.23643 3.36365 1.01136 3.75127C0.786285 4.1514 0.923828 4.66406 1.32395 4.88913Z" />
<path d="M13.2902 11.6663C13.5778 11.6663 13.8529 11.5163 14.0155 11.2537C14.2405 10.8536 14.1155 10.3409 13.7154 10.1158L12.2649 9.27809C11.8648 9.05301 11.3521 9.19056 11.1271 9.57818C10.902 9.9783 11.027 10.491 11.4272 10.716L12.8776 11.5538C13.0026 11.6413 13.1402 11.6663 13.2902 11.6663Z"/>
<path d="M0.848788 8.3402H2.51183C2.97447 8.3402 3.34957 7.96508 3.34957 7.50243C3.34957 7.03979 2.97447 6.66467 2.51183 6.66467H0.848788C0.386143 6.66467 0.0110474 7.03979 0.0110474 7.50243C0.0110474 7.96508 0.386143 8.3402 0.848788 8.3402Z" />
<path d="M12.515 6.66467C12.0523 6.66467 11.6772 7.03979 11.6772 7.50243C11.6772 7.96508 12.0523 8.3402 12.515 8.3402H14.178C14.6407 8.3402 15.0158 7.96508 15.0158 7.50243C15.0158 7.03979 14.6407 6.66467 14.178 6.66467H12.515Z" />
<path d="M3.89976 9.59014C3.67468 9.19001 3.16206 9.05247 2.76193 9.29004L1.32395 10.1278C0.923828 10.3529 0.786298 10.8655 1.02387 11.2657C1.17392 11.5282 1.46153 11.6783 1.74912 11.6783C1.88666 11.6783 2.03665 11.6408 2.16169 11.5658L3.61219 10.728C3.99981 10.4904 4.13733 9.99026 3.89976 9.59014Z" />
<path d="M11.1271 5.41434C11.2771 5.67692 11.5646 5.82697 11.8522 5.82697C11.9898 5.82697 12.1398 5.78946 12.2649 5.71444L13.7029 4.87667C14.103 4.6516 14.2405 4.13894 14.0029 3.73882C13.7779 3.33869 13.2653 3.20115 12.8651 3.43872L11.4146 4.27649C11.027 4.51406 10.8895 5.02672 11.1271 5.41434Z" />
<path d="M3.76225 14.0043C3.89979 14.0793 4.03735 14.1168 4.1749 14.1168C4.46249 14.1168 4.75002 13.9667 4.90007 13.7042L5.73789 12.2662C5.96296 11.8661 5.82542 11.3534 5.4378 11.1284C5.03768 10.9033 4.52498 11.0283 4.29991 11.4285L3.46217 12.8664C3.22459 13.254 3.36212 13.7667 3.76225 14.0043Z" />
<path d="M9.60154 3.88848C9.73908 3.9635 9.87665 4.00102 10.0142 4.00102C10.3018 4.00102 10.5769 3.85097 10.7394 3.58839L11.5772 2.15044C11.8023 1.75031 11.6772 1.23765 11.2771 1.01258C10.877 0.787512 10.3643 0.925055 10.1392 1.31268L9.30146 2.75063C9.06389 3.15075 9.20142 3.66341 9.60154 3.88848Z" />
</svg>
