<svg id="rocket" viewBox="0 0 50 50" xmlns="http://www.w3.org/2000/svg">
<path d="M48.4994 2.03879L48.4993 2.03879L48.499 2.04585C48.1303 10.9528 43.2679 21.459 34.5458 30.1959L34.4127 30.3293L34.4007 30.5174C34.0941 35.3203 31.798 40.4882 27.6167 44.6695L27.615 44.6712C26.1542 46.1466 24.5645 47.3883 22.904 48.3827C22.8887 48.3898 22.8764 48.3963 22.8682 48.4008C22.8415 48.4154 22.8185 48.4304 22.8052 48.4392C22.8015 48.4417 22.798 48.4441 22.7946 48.4464C22.608 48.5295 22.3668 48.4917 22.2193 48.3442C22.1692 48.2941 22.1375 48.2427 22.1179 48.1875L22.1162 48.1817L22.1036 48.1384C22.0956 48.1115 22.0843 48.0735 22.0745 48.0429L20.1576 41.169L20.0002 40.6047L19.4677 40.8488C18.4007 41.3378 17.3198 41.782 16.2547 42.1668C16.0839 42.2253 15.8832 42.188 15.7399 42.0447L15.3864 42.3983L15.7399 42.0447L15.1099 41.4147L14.5877 40.8926L14.2968 41.5713C14.0519 42.1427 13.698 42.6745 13.2179 43.1546C12.771 43.6015 11.8144 44.169 10.555 44.7807C9.31676 45.3821 7.84963 45.9968 6.43875 46.5506C5.02922 47.1037 3.68266 47.5934 2.68802 47.9448C2.44003 48.0325 2.21402 48.1115 2.01449 48.1807C2.08371 47.9812 2.16271 47.7552 2.25034 47.5072C2.60181 46.5125 3.09144 45.166 3.64461 43.7564C4.19831 42.3456 4.81302 40.8784 5.41446 39.6401C6.02616 38.3808 6.59364 37.4242 7.04054 36.9773C7.52063 36.4972 8.05252 36.1432 8.62385 35.8984L9.30265 35.6075L8.78045 35.0853L7.95554 34.2603C7.81224 34.117 7.77495 33.9164 7.83339 33.7455C8.2176 32.6819 8.66188 31.6154 9.15247 30.5302L9.39253 29.9992L8.83117 29.8426L1.95727 27.9257C1.92661 27.9158 1.8885 27.9045 1.86164 27.8966L1.81834 27.884L1.81263 27.8823C1.75757 27.8627 1.70623 27.831 1.65602 27.7808L1.65612 27.7807L1.64771 27.7727C1.48716 27.6195 1.45728 27.375 1.55875 27.1938L1.56313 27.1859L1.56351 27.1853L1.59418 27.1351C2.60948 25.4723 3.8452 23.869 5.33074 22.3835C9.51278 18.2014 14.6804 15.8914 19.4813 15.5995L19.6702 15.588L19.8042 15.4543C28.5411 6.73227 39.0474 1.86984 47.9543 1.50122L47.9614 1.50083C48.1091 1.49262 48.2591 1.5437 48.3536 1.63386C48.4522 1.74435 48.5067 1.90732 48.4994 2.03879ZM44.0404 13.4742L44.5714 14.0051L44.8565 13.3105C46.2825 9.83661 47.1674 6.38109 47.4272 3.11104L47.4736 2.52658L46.8891 2.57301C43.6191 2.83278 40.1636 3.71773 36.6897 5.14369L35.995 5.42883L36.526 5.95979L44.0404 13.4742ZM3.1678 26.5498L2.77889 27.1259L3.44884 27.3114L9.46336 28.9763L9.85677 29.0852L10.0422 28.7215C11.9567 24.9667 14.5115 21.2228 17.6482 17.7293L18.6532 16.6099L17.1781 16.905C15.4806 17.2445 13.7738 17.845 12.1179 18.6729C9.90731 19.7782 7.86907 21.2656 6.04845 23.0862C4.96361 24.1711 3.99762 25.3204 3.1678 26.5498ZM6.08267 45.6412L6.08269 45.6412L6.08968 45.6385C11.1018 43.6727 12.2699 42.712 12.5151 42.4668C13.1459 41.8361 13.5244 41.0489 13.6455 40.2703L13.6845 40.0194L13.505 39.8399L10.3703 36.7051L10.1876 36.5224L9.93286 36.5658C9.12391 36.7034 8.3552 37.0982 7.74332 37.7101L8.09687 38.0636L7.74332 37.7101C7.49789 37.9555 6.53726 39.124 4.57149 44.151L4.57087 44.1526C4.39119 44.6168 4.20959 45.086 4.04279 45.5408L3.67136 46.5538L4.68436 46.1824C4.91596 46.0975 5.15012 46.0053 5.38218 45.9136L5.4299 45.8948C5.64754 45.8087 5.86368 45.7233 6.08267 45.6412ZM15.9926 40.892L16.2224 41.1217L16.5257 41.0051C17.5107 40.6262 18.4807 40.217 19.4655 39.7625L19.4685 39.7611C21.9572 38.5926 24.4274 37.1374 26.8041 35.4571L26.8049 35.4566C29.258 33.7152 31.6042 31.7321 33.7984 29.5379C35.9927 27.3436 37.9757 24.9974 39.7171 22.5443L39.7171 22.5443C41.3836 20.196 42.8082 17.7562 43.9756 15.3001L44.1271 14.9814L43.8775 14.7319L35.2683 6.1226L35.0194 5.87372L34.7011 6.02405C32.2285 7.19209 29.8035 8.61707 27.456 10.2831L27.4559 10.2831C25.0028 12.0245 22.6566 14.0075 20.4623 16.2018C18.2682 18.3959 16.2853 20.742 14.5439 23.1949C12.8629 25.5575 11.4073 28.0284 10.2386 30.5327L10.2377 30.5347C9.78321 31.5195 9.374 32.4894 8.99514 33.4745L8.8785 33.7777L9.10826 34.0075L15.9926 40.892ZM22.6892 46.5674L22.8774 47.2413L23.454 46.8449C24.6788 46.0028 25.8422 45.0384 26.9139 43.9667C28.7341 42.1466 30.222 40.1081 31.3128 37.8961C32.14 36.2414 32.7408 34.5496 33.0804 32.8362L33.3709 31.3706L32.2567 32.3662C28.7629 35.4884 25.0182 38.0438 21.2623 39.9737L20.8995 40.1601L21.0092 40.5529L22.6892 46.5674Z"  />
<path d="M28.9666 17.4919L28.9666 17.4918L28.9598 17.4989C28.5001 17.9769 28.2352 18.5942 28.2352 19.2703C28.2352 19.9278 28.4978 20.5649 28.9666 21.0337C29.434 21.5011 30.0556 21.7651 30.7301 21.7651C31.3876 21.7651 32.0247 21.5025 32.4935 21.0337C33.4687 20.0585 33.4687 18.4671 32.4935 17.4919C32.0261 17.0245 31.4046 16.7605 30.7301 16.7605C30.0726 16.7605 29.4354 17.0231 28.9666 17.4919ZM33.228 21.7348C32.5543 22.3944 31.6748 22.76 30.7451 22.76C29.7937 22.76 28.9181 22.4049 28.2656 21.7533C27.6052 21.0788 27.2404 20.214 27.2404 19.2703C27.2404 18.3238 27.6071 17.4468 28.2621 16.7908C28.9358 16.1312 29.8153 15.7656 30.7451 15.7656C31.6925 15.7656 32.5701 16.133 33.2262 16.7891C34.5903 18.1531 34.5909 20.37 33.228 21.7348Z"  />
<path d="M24.0192 29.523L24.0192 29.5231L24.026 29.516C24.4842 29.0394 24.7506 28.4226 24.7506 27.7596C24.7506 27.1021 24.488 26.4649 24.0192 25.9961C23.5518 25.5287 22.9302 25.2647 22.2557 25.2647C21.5982 25.2647 20.9611 25.5273 20.4923 25.9961C20.0249 26.4635 19.7609 27.0851 19.7609 27.7596C19.7609 28.417 20.0234 29.0542 20.4923 29.523C20.9597 29.9904 21.5812 30.2544 22.2557 30.2544C22.9132 30.2544 23.5504 29.9918 24.0192 29.523ZM19.7728 25.2801C20.4466 24.6204 21.326 24.2549 22.2557 24.2549C23.1897 24.2549 24.066 24.6083 24.7352 25.2766C25.3949 25.9503 25.7605 26.8298 25.7605 27.7596C25.7605 28.7061 25.3937 29.5831 24.7387 30.239C24.065 30.8987 23.1855 31.2642 22.2557 31.2642C21.3092 31.2642 20.4322 30.8975 19.7763 30.2425C19.1167 29.5688 18.7511 28.6893 18.7511 27.7596C18.7511 26.813 19.1178 25.936 19.7728 25.2801Z" />
</svg>
