<svg id="rocket-2" viewBox="0 0 40 40" xmlns="http://www.w3.org/2000/svg">
<path d="M39.5477 0.450046C38.4226 0.150016 37.26 0 36.0973 0C32.6845 0 29.2717 1.30012 26.6714 3.90038L14.9827 15.5891L7.41948 17.0267C7.41948 17.0267 0.256276 23.2398 0.243774 23.2523C-0.0812581 23.5774 -0.0812581 24.1024 0.243774 24.4274C0.406291 24.59 0.643802 24.665 0.856323 24.665L8.60711 23.8774L7.90705 27.3652L9.66969 29.1279L7.90705 30.8906C7.58201 31.2156 7.58201 31.7407 7.90705 32.0657C8.23208 32.3907 8.75713 32.3907 9.08217 32.0657L10.8448 30.303L12.62 32.0657L16.1079 31.3656L15.3203 39.1164C15.3203 39.3414 15.3953 39.5665 15.5578 39.729C15.7203 39.8915 15.9328 39.979 16.1453 39.979C16.3578 39.979 16.5704 39.904 16.7329 39.729C16.7454 39.7165 22.9585 32.5532 22.9585 32.5532L24.3962 24.99L36.0848 13.3013C39.5852 9.85098 40.7353 4.90049 39.5477 0.450046ZM8.31953 22.2522L3.36909 22.7523C4.83173 21.4896 6.76938 19.802 8.16952 18.5894L12.87 17.7018L8.31953 22.2522ZM9.70723 26.8402L10.0948 24.8775L11.9075 26.6902L12.0199 26.8027L10.8448 27.9778L9.70723 26.8402ZM13.1576 30.2905L12.0199 29.1529L13.195 27.9778L15.1202 29.903L13.1576 30.2905ZM21.4084 31.8282C20.1958 33.2283 18.5081 35.1785 17.2454 36.6287L17.7455 31.6782L22.3084 27.1277L21.4084 31.8282ZM34.9097 12.1637L17.3204 29.753L15.1952 27.6278L14.3702 26.8027L19.6707 21.5021C19.9957 21.1771 19.9957 20.6521 19.6707 20.327C19.3457 20.002 18.8206 20.002 18.4956 20.327L13.195 25.6276L10.2448 22.6773L27.834 5.08802C28.6091 4.31294 29.4842 3.65037 30.4218 3.12531L36.8599 9.56345C36.3474 10.5135 35.6848 11.3886 34.9097 12.1637ZM37.96 6.83819C37.86 7.21322 37.7475 7.58826 37.61 7.9508L32.047 2.38774C33.3471 1.9127 34.6972 1.66267 36.0848 1.66267C36.7724 1.66267 37.46 1.72517 38.1476 1.85018C38.4476 3.50034 38.3851 5.21302 37.96 6.83819Z"/>
<path d="M26.1712 10.5015C25.3211 10.5015 24.4585 10.8265 23.8085 11.4766C22.5083 12.7767 22.5083 14.8894 23.8085 16.1895C24.4585 16.8396 25.3086 17.1646 26.1712 17.1646C27.0213 17.1646 27.8839 16.8396 28.534 16.1895C29.8341 14.8894 29.8341 12.7767 28.534 11.4766C27.8714 10.8265 27.0213 10.5015 26.1712 10.5015ZM27.3463 15.0144C27.0338 15.3269 26.6088 15.502 26.1712 15.502C25.7212 15.502 25.3086 15.3269 24.9961 15.0144C24.346 14.3644 24.346 13.3017 24.9961 12.6517C25.3086 12.3392 25.7337 12.1641 26.1712 12.1641C26.6213 12.1641 27.0338 12.3392 27.3463 12.6517C27.6589 12.9642 27.8339 13.3893 27.8339 13.8268C27.8339 14.2768 27.6589 14.6894 27.3463 15.0144Z"/>
</svg>
