<svg id="scooter"  viewBox="0 0 50 50"  xmlns="http://www.w3.org/2000/svg">
<mask id="path-1-inside-1_590_2839" >
<path d="M44.465 37.54V29.995V8.125C45.38 7.39 45.965 6.265 45.965 5.005C45.965 2.8 44.18 1 41.975 1C39.77 1 37.97 2.8 37.97 5.005C37.97 6.265 38.555 7.39 39.47 8.125V16V28.99H38.975C38.42 28.99 37.97 29.44 37.97 29.995C37.97 30.55 38.42 30.985 38.975 30.985H39.47V33.895C37.745 34.3 34.025 35.77 30.995 40.99H16.73C16.25 39.55 14.915 36.505 11.99 34.99C9.62001 33.775 6.81501 33.82 3.60501 35.125C3.09501 35.335 2.85499 35.92 3.06499 36.43C3.27499 36.94 3.85998 37.18 4.36998 36.97C6.99498 35.89 9.24501 35.815 11.06 36.745C12.995 37.735 14.075 39.7 14.6 40.975H13.64C13.52 40.645 13.37 40.315 13.19 40C13.19 40 13.19 39.985 13.19 39.97C13.175 39.97 13.175 39.955 13.16 39.955C12.125 38.17 10.19 36.985 8 36.985C5.78 36.985 3.87498 38.17 2.82498 39.955L2.81001 39.97C2.79501 39.985 2.795 39.985 2.795 40C2.285 40.885 2 41.905 2 42.985C2 44.065 2.285 45.085 2.795 45.97C2.795 45.97 2.79501 45.985 2.81001 46C2.81001 46.015 2.825 46.03 2.84 46.045C3.89 47.8 5.81 49 8 49C10.19 49 12.125 47.815 13.16 46.045C13.16 46.015 13.175 46.015 13.19 46H33.965C34.4 46 34.79 45.715 34.925 45.31C35.195 44.455 35.54 43.66 35.975 42.94C35.975 42.97 35.975 42.97 35.975 43C35.975 46.315 38.66 49 41.96 49C45.275 49 47.96 46.3 47.96 43C47.96 40.585 46.52 38.5 44.465 37.54ZM41.96 3.01C43.07 3.01 43.97 3.895 43.97 5.005C43.97 6.1 43.07 7 41.96 7C40.865 7 39.965 6.1 39.965 5.005C39.965 3.895 40.865 3.01 41.96 3.01ZM41.96 9.01C42.14 9.01 42.305 8.995 42.47 8.98V15.01H41.465V8.98C41.63 8.995 41.795 9.01 41.96 9.01ZM41.465 17.005H42.47V29.005H41.465V17.005ZM42.47 31V42.88C42.47 43.06 42.41 43.21 42.29 43.33C42.23 43.405 42.11 43.48 41.96 43.48C41.69 43.48 41.465 43.195 41.465 42.865V37.99V34.75V31H42.47ZM3.98001 43C3.98001 42.64 4.02501 42.28 4.11501 41.935L5.97499 43L4.11501 44.065C4.02501 43.735 3.98001 43.375 3.98001 43ZM11.975 43C11.975 43.375 11.915 43.735 11.825 44.065L9.965 43L11.825 41.935C11.915 42.265 11.975 42.625 11.975 43ZM10.82 40.195L8.95998 41.26V39.115C9.67998 39.31 10.325 39.685 10.82 40.195ZM6.965 39.13V41.275L5.10501 40.21C5.61501 39.685 6.245 39.31 6.965 39.13ZM5.10501 45.79L6.965 44.725V46.87C6.245 46.69 5.61501 46.3 5.10501 45.79ZM8.95998 46.87V44.725L10.82 45.79C10.325 46.3 9.67998 46.69 8.95998 46.87ZM33.245 44.005H13.88C13.925 43.675 13.955 43.345 13.955 43H15.965H31.565C31.94 43 32.27 42.805 32.45 42.49C34.265 39.16 36.35 37.51 37.805 36.715C38.435 36.37 39.005 36.145 39.455 35.995V37.3C38.015 37.885 34.88 39.64 33.245 44.005ZM41.96 46.99C39.755 46.99 37.955 45.205 37.955 43C37.955 41.74 38.54 40.615 39.455 39.88V42.88C39.455 44.32 40.58 45.505 41.96 45.505C42.65 45.505 43.28 45.22 43.76 44.71C44.225 44.215 44.465 43.57 44.465 42.88V42.865V39.88C45.38 40.615 45.965 41.74 45.965 43C45.95 45.205 44.18 46.99 41.96 46.99Z"/>
</mask>
<path d="M44.465 37.54V29.995V8.125C45.38 7.39 45.965 6.265 45.965 5.005C45.965 2.8 44.18 1 41.975 1C39.77 1 37.97 2.8 37.97 5.005C37.97 6.265 38.555 7.39 39.47 8.125V16V28.99H38.975C38.42 28.99 37.97 29.44 37.97 29.995C37.97 30.55 38.42 30.985 38.975 30.985H39.47V33.895C37.745 34.3 34.025 35.77 30.995 40.99H16.73C16.25 39.55 14.915 36.505 11.99 34.99C9.62001 33.775 6.81501 33.82 3.60501 35.125C3.09501 35.335 2.85499 35.92 3.06499 36.43C3.27499 36.94 3.85998 37.18 4.36998 36.97C6.99498 35.89 9.24501 35.815 11.06 36.745C12.995 37.735 14.075 39.7 14.6 40.975H13.64C13.52 40.645 13.37 40.315 13.19 40C13.19 40 13.19 39.985 13.19 39.97C13.175 39.97 13.175 39.955 13.16 39.955C12.125 38.17 10.19 36.985 8 36.985C5.78 36.985 3.87498 38.17 2.82498 39.955L2.81001 39.97C2.79501 39.985 2.795 39.985 2.795 40C2.285 40.885 2 41.905 2 42.985C2 44.065 2.285 45.085 2.795 45.97C2.795 45.97 2.79501 45.985 2.81001 46C2.81001 46.015 2.825 46.03 2.84 46.045C3.89 47.8 5.81 49 8 49C10.19 49 12.125 47.815 13.16 46.045C13.16 46.015 13.175 46.015 13.19 46H33.965C34.4 46 34.79 45.715 34.925 45.31C35.195 44.455 35.54 43.66 35.975 42.94C35.975 42.97 35.975 42.97 35.975 43C35.975 46.315 38.66 49 41.96 49C45.275 49 47.96 46.3 47.96 43C47.96 40.585 46.52 38.5 44.465 37.54ZM41.96 3.01C43.07 3.01 43.97 3.895 43.97 5.005C43.97 6.1 43.07 7 41.96 7C40.865 7 39.965 6.1 39.965 5.005C39.965 3.895 40.865 3.01 41.96 3.01ZM41.96 9.01C42.14 9.01 42.305 8.995 42.47 8.98V15.01H41.465V8.98C41.63 8.995 41.795 9.01 41.96 9.01ZM41.465 17.005H42.47V29.005H41.465V17.005ZM42.47 31V42.88C42.47 43.06 42.41 43.21 42.29 43.33C42.23 43.405 42.11 43.48 41.96 43.48C41.69 43.48 41.465 43.195 41.465 42.865V37.99V34.75V31H42.47ZM3.98001 43C3.98001 42.64 4.02501 42.28 4.11501 41.935L5.97499 43L4.11501 44.065C4.02501 43.735 3.98001 43.375 3.98001 43ZM11.975 43C11.975 43.375 11.915 43.735 11.825 44.065L9.965 43L11.825 41.935C11.915 42.265 11.975 42.625 11.975 43ZM10.82 40.195L8.95998 41.26V39.115C9.67998 39.31 10.325 39.685 10.82 40.195ZM6.965 39.13V41.275L5.10501 40.21C5.61501 39.685 6.245 39.31 6.965 39.13ZM5.10501 45.79L6.965 44.725V46.87C6.245 46.69 5.61501 46.3 5.10501 45.79ZM8.95998 46.87V44.725L10.82 45.79C10.325 46.3 9.67998 46.69 8.95998 46.87ZM33.245 44.005H13.88C13.925 43.675 13.955 43.345 13.955 43H15.965H31.565C31.94 43 32.27 42.805 32.45 42.49C34.265 39.16 36.35 37.51 37.805 36.715C38.435 36.37 39.005 36.145 39.455 35.995V37.3C38.015 37.885 34.88 39.64 33.245 44.005ZM41.96 46.99C39.755 46.99 37.955 45.205 37.955 43C37.955 41.74 38.54 40.615 39.455 39.88V42.88C39.455 44.32 40.58 45.505 41.96 45.505C42.65 45.505 43.28 45.22 43.76 44.71C44.225 44.215 44.465 43.57 44.465 42.88V42.865V39.88C45.38 40.615 45.965 41.74 45.965 43C45.95 45.205 44.18 46.99 41.96 46.99Z"   stroke-width="2" mask="url(#path-1-inside-1_590_2839)"/>
<path d="M42.3297 4.65667C42.5201 4.85053 42.5201 5.15911 42.3297 5.35298C42.1146 5.55671 41.7986 5.54638 41.6085 5.35627C41.4138 5.16153 41.4138 4.84812 41.6085 4.65338C41.7986 4.46326 42.1146 4.45294 42.3297 4.65667Z"/>
</svg>
