<svg id="termometer" viewBox="0 0 40 40" xmlns="http://www.w3.org/2000/svg">
<path d="M14.9082 4.1625C14.9082 1.8625 13.0457 0 10.7457 0C8.44566 0 6.58316 1.8625 6.58316 4.1625V30.075C5.55816 31.125 4.92065 32.5625 4.92065 34.1625C4.92065 37.3875 7.53315 40 10.7582 40C13.9832 40 16.5956 37.3875 16.5956 34.1625C16.5956 32.575 15.9581 31.1375 14.9331 30.075V4.1625H14.9082ZM10.7457 38.3375C8.44566 38.3375 6.58316 36.4625 6.58316 34.175C6.58316 33.075 7.00815 32.0375 7.77065 31.2625L8.24566 30.775V30.1V18.35C8.67066 18.3125 9.00816 17.9625 9.00816 17.525C9.00816 17.0875 8.67066 16.725 8.24566 16.7V4.2C8.24566 2.825 9.37066 1.7 10.7457 1.7C12.1207 1.7 13.2457 2.825 13.2457 4.2V16.7C12.8207 16.7375 12.4832 17.0875 12.4832 17.525C12.4832 17.9625 12.8207 18.325 13.2457 18.35V30.1V30.775L13.7207 31.2625C14.4832 32.05 14.9082 33.0875 14.9082 34.175C14.9082 36.4625 13.0457 38.3375 10.7457 38.3375Z" />
<path d="M11.5832 31.8126V7.5001C11.5832 7.0376 11.2082 6.6626 10.7457 6.6626C10.2832 6.6626 9.9082 7.0376 9.9082 7.5001V31.8126C8.9332 32.1501 8.2457 33.0751 8.2457 34.1751C8.2457 35.5501 9.3707 36.6751 10.7457 36.6751C12.1207 36.6751 13.2457 35.5501 13.2457 34.1751C13.2457 33.0751 12.5457 32.1501 11.5832 31.8126ZM10.7457 35.0001C10.2832 35.0001 9.9082 34.6251 9.9082 34.1626C9.9082 33.7001 10.2832 33.3251 10.7457 33.3251C11.2082 33.3251 11.5832 33.7001 11.5832 34.1626C11.5832 34.6251 11.2082 35.0001 10.7457 35.0001Z" />
<path d="M25.7456 14.2249C26.2081 14.2249 26.5831 13.85 26.5831 13.3875V11.7249C26.5831 11.2624 26.2081 10.8875 25.7456 10.8875C25.2831 10.8875 24.9081 11.2624 24.9081 11.7249V13.3875C24.9081 13.85 25.2831 14.2249 25.7456 14.2249Z" />
<path d="M25.7456 25.8997C25.2831 25.8997 24.9081 26.2747 24.9081 26.7372V28.3997C24.9081 28.8622 25.2831 29.2372 25.7456 29.2372C26.2081 29.2372 26.5831 28.8622 26.5831 28.3997V26.7372C26.5831 26.2622 26.2081 25.8997 25.7456 25.8997Z"/>
<path d="M19.2582 14.7623L20.4332 15.9373C20.7582 16.2623 21.2832 16.2623 21.6082 15.9373C21.9332 15.6123 21.9332 15.0873 21.6082 14.7623L20.4332 13.5873C20.1082 13.2623 19.5832 13.2623 19.2582 13.5873C18.9332 13.8998 18.9332 14.4373 19.2582 14.7623Z" />
<path d="M32.2332 25.3628L31.0582 24.1878C30.7332 23.8628 30.2082 23.8628 29.8832 24.1878C29.5582 24.5128 29.5582 25.0378 29.8832 25.3628L31.0582 26.5378C31.3832 26.8628 31.9082 26.8628 32.2332 26.5378C32.5582 26.2128 32.5582 25.6878 32.2332 25.3628Z" />
<path d="M19.0832 20.8998C19.5457 20.8998 19.9207 20.5249 19.9207 20.0624C19.9207 19.5999 19.5457 19.2249 19.0832 19.2249H17.4207C16.9582 19.2249 16.5832 19.5999 16.5832 20.0624C16.5832 20.5249 16.9582 20.8998 17.4207 20.8998H19.0832Z" />
<path d="M34.0832 19.2249H32.4207C31.9582 19.2249 31.5832 19.5999 31.5832 20.0624C31.5832 20.5249 31.9582 20.8998 32.4207 20.8998H34.0832C34.5457 20.8998 34.9207 20.5249 34.9207 20.0624C34.9082 19.5999 34.5332 19.2249 34.0832 19.2249Z" />
<path d="M20.4456 24.1878L19.2706 25.3628C18.9456 25.6878 18.9456 26.2128 19.2706 26.5378C19.5956 26.8628 20.1206 26.8628 20.4456 26.5378L21.6206 25.3628C21.9456 25.0378 21.9456 24.5128 21.6206 24.1878C21.2956 23.8628 20.7706 23.8628 20.4456 24.1878Z" />
<path d="M31.0457 15.9373L32.2207 14.7623C32.5457 14.4373 32.5457 13.9123 32.2207 13.5873C31.8957 13.2623 31.3707 13.2623 31.0457 13.5873L29.8707 14.7623C29.5457 15.0873 29.5457 15.6123 29.8707 15.9373C30.1957 16.2623 30.7207 16.2623 31.0457 15.9373Z" />
<path d="M25.7457 15.0623C22.9832 15.0623 20.7457 17.2998 20.7457 20.0623C20.7457 22.8248 22.9832 25.0623 25.7457 25.0623C28.5082 25.0623 30.7457 22.8248 30.7457 20.0623C30.7457 17.2998 28.5082 15.0623 25.7457 15.0623ZM25.7457 23.3998C23.9082 23.3998 22.4082 21.8998 22.4082 20.0623C22.4082 18.2248 23.9082 16.7248 25.7457 16.7248C27.5832 16.7248 29.0832 18.2248 29.0832 20.0623C29.0832 21.8998 27.5832 23.3998 25.7457 23.3998Z" />
</svg>
