<svg id="warranty" viewBox="0 0 40 40"  xmlns="http://www.w3.org/2000/svg">
<path d="M24.5895 26.8166L28.0634 23.4302C28.2883 23.2052 28.3758 22.8803 28.2759 22.5804C28.1759 22.2805 27.9135 22.0556 27.6011 22.0181L22.8026 21.3183L20.6532 16.9697C20.5158 16.6823 20.2284 16.5073 19.9035 16.5073C19.5911 16.5073 19.2912 16.6823 19.1537 16.9697L17.0044 21.3183L12.2059 22.0181C11.8935 22.0681 11.6311 22.2805 11.5311 22.5804C11.4311 22.8803 11.5186 23.2177 11.7435 23.4302L15.2174 26.8166L14.3927 31.5901C14.3427 31.9025 14.4677 32.2149 14.7301 32.4024C14.9925 32.5898 15.3299 32.6148 15.6048 32.4648L19.891 30.2155L24.1771 32.4648C24.3021 32.5273 24.4271 32.5648 24.5645 32.5648C24.7395 32.5648 24.9144 32.5148 25.0519 32.4024C25.3143 32.2149 25.4392 31.9025 25.3768 31.5901L24.5895 26.8166ZM23.115 25.9294C22.915 26.1168 22.8276 26.3917 22.8775 26.6667L23.4899 30.2155L20.3033 28.5411C20.1784 28.4786 20.0534 28.4411 19.916 28.4411C19.7785 28.4411 19.6535 28.4786 19.5286 28.5411L16.3421 30.2155L16.9544 26.6667C17.0044 26.3917 16.9169 26.1168 16.717 25.9294L14.1428 23.4177L17.7042 22.9053C17.9791 22.8678 18.204 22.6929 18.329 22.443L19.916 19.219L21.503 22.443C21.6279 22.6929 21.8654 22.8553 22.1278 22.9053L25.6892 23.4177L23.115 25.9294Z" />
<path d="M34.9113 25.0047C34.9113 24.9922 34.9113 25.0047 34.9113 25.0047C34.9113 20.9934 33.3493 17.2321 30.5127 14.3955C27.6885 11.5589 23.9272 10.0094 19.916 10.0094C18.3165 10.0094 16.767 10.2593 15.2924 10.7341C16.667 8.92221 18.0541 7.61012 19.3536 6.93533C20.3783 6.398 21.303 6.29803 22.1028 6.62293C24.1521 7.46017 26.2265 7.28522 28.1009 6.14808C28.6257 6.47298 29.2506 6.67292 29.9128 6.67292C31.7498 6.67292 33.2493 5.17338 33.2493 3.33646C33.2493 1.49953 31.7498 0 29.9128 0C28.0759 0 26.5764 1.49953 26.5764 3.33646C26.5764 3.88629 26.7138 4.41112 26.9513 4.87348C25.6017 5.59825 24.1896 5.66073 22.7276 5.07341C21.453 4.56107 20.0659 4.68604 18.5789 5.46079C16.5545 6.51047 14.3802 8.83474 12.3808 12.0337C11.2687 12.6835 10.2315 13.4708 9.30678 14.408C6.48267 17.2321 4.92065 20.9934 4.92065 25.0047C4.92065 29.0159 6.48267 32.7773 9.30678 35.6139C12.1309 38.4505 15.9047 40 19.916 40C23.9272 40 27.6885 38.438 30.5127 35.6139C33.3368 32.7898 34.9113 29.0034 34.9113 25.0047ZM29.9128 1.67448C30.8376 1.67448 31.5748 2.42424 31.5748 3.33646C31.5748 4.26117 30.8251 4.99844 29.9128 4.99844C29.0006 4.99844 28.2509 4.24867 28.2509 3.33646C28.2509 2.42424 28.9881 1.67448 29.9128 1.67448ZM10.4939 15.5701C11.1312 14.9328 11.8185 14.3705 12.5433 13.8832C12.6932 14.1331 12.9681 14.283 13.2556 14.283C13.393 14.283 13.543 14.2455 13.6679 14.1706C14.0553 13.9456 14.1928 13.4458 13.9803 13.0459C15.5548 12.2587 17.2918 11.7963 19.0787 11.6839C19.0912 12.1337 19.4536 12.4961 19.916 12.4961C20.3658 12.4961 20.7282 12.1337 20.7532 11.6839C22.5526 11.7963 24.2771 12.2587 25.8516 13.0459C25.6392 13.4458 25.7766 13.9456 26.164 14.1706C26.289 14.2455 26.4389 14.283 26.5764 14.283C26.8513 14.283 27.1262 14.1456 27.2887 13.8832C28.0134 14.3705 28.7007 14.9328 29.338 15.5701C29.9753 16.2074 30.5377 16.8947 31.025 17.6195C30.6376 17.8569 30.5127 18.3568 30.7376 18.7441C30.8875 19.0066 31.175 19.1565 31.4624 19.1565C31.5998 19.1565 31.7373 19.119 31.8622 19.0565C32.6495 20.6311 33.1118 22.368 33.2243 24.155C32.7745 24.1674 32.4121 24.5298 32.4121 24.9922C32.4121 25.4545 32.7745 25.8044 33.2243 25.8169C33.1118 27.6164 32.6495 29.3408 31.8622 30.9153C31.5123 30.7279 31.1 30.8029 30.8376 31.0903C31.8622 29.2534 32.4121 27.179 32.4121 25.0047C32.4121 21.6682 31.1125 18.5317 28.7507 16.1699C26.3889 13.8082 23.2524 12.5086 19.916 12.5086C16.5795 12.5086 13.443 13.8082 11.0812 16.1699C8.71947 18.5567 7.41987 21.6932 7.41987 25.0297C7.41987 27.1915 7.9697 29.2659 8.99438 31.1153C8.74446 30.8279 8.31959 30.7529 7.9697 30.9403C7.18245 29.3658 6.72009 27.6289 6.60763 25.8419C7.05749 25.8169 7.41987 25.4545 7.41987 25.0047C7.41987 24.5548 7.05749 24.1924 6.60763 24.1674C6.72009 22.368 7.18245 20.6436 7.9697 19.069C8.09466 19.1315 8.23212 19.169 8.36958 19.169C8.65699 19.169 8.9319 19.0191 9.09435 18.7566C9.31928 18.3693 9.19432 17.8694 8.80694 17.632C9.29429 16.8947 9.85661 16.2074 10.4939 15.5701ZM25.8516 36.9385C24.2771 37.7257 22.5401 38.1881 20.7532 38.3005C20.7407 37.9257 20.4783 37.6133 20.1284 37.5258C22.2153 37.4883 24.2271 36.951 26.0016 35.9513C25.7392 36.2137 25.6642 36.6136 25.8516 36.9385ZM13.9803 36.9385C14.1553 36.6011 14.0928 36.2012 13.8304 35.9513C15.6048 36.951 17.6167 37.4883 19.7035 37.5258C19.3536 37.6133 19.0912 37.9257 19.0787 38.3005C17.2918 38.1881 15.5548 37.7257 13.9803 36.9385ZM19.916 35.8638C13.9428 35.8638 9.08185 31.0028 9.08185 25.0297C9.08185 19.0565 13.9428 14.1956 19.916 14.1956C25.8891 14.1956 30.7501 19.0565 30.7501 25.0297C30.7501 31.0028 25.8891 35.8638 19.916 35.8638ZM8.80694 32.3774C9.14433 32.1774 9.28179 31.7651 9.16933 31.4152C9.69416 32.3024 10.3315 33.1272 11.0812 33.8769C11.806 34.6017 12.6182 35.239 13.4805 35.7513C13.1306 35.6514 12.7432 35.8013 12.5433 36.1137C11.8185 35.6264 11.1312 35.064 10.4939 34.4267C9.85661 33.7894 9.29429 33.1022 8.80694 32.3774ZM29.338 34.4267C28.7007 35.064 28.0134 35.6264 27.2887 36.1137C27.0887 35.7888 26.7138 35.6514 26.3515 35.7513C27.2137 35.2265 28.0134 34.6017 28.7507 33.8769C29.5005 33.1272 30.1378 32.3024 30.6626 31.4152C30.5501 31.7776 30.6876 32.1774 31.025 32.3899C30.5377 33.1022 29.9753 33.7894 29.338 34.4267Z" />
</svg>
