<svg id="wheel" viewBox="0 0 40 40"  xmlns="http://www.w3.org/2000/svg">
<path d="M20 0C8.95 0 0 8.95 0 20C0 31.05 8.95 40 20 40C31.05 40 40 31.05 40 20C40 8.95 31.05 0 20 0ZM36.275 28.4375L24.6875 21.75C24.8 21.4625 24.875 21.15 24.925 20.8375H38.3125C38.2125 23.025 37.7375 25.1375 36.8875 27.1375C36.7 27.575 36.5 28.0125 36.275 28.4375ZM20 23.3375C18.1625 23.3375 16.6625 21.8375 16.6625 20C16.6625 18.1625 18.1625 16.6625 20 16.6625C21.8375 16.6625 23.3375 18.1625 23.3375 20C23.3375 21.8375 21.8375 23.3375 20 23.3375ZM3.10001 27.1375C2.25001 25.1375 1.775 23.0125 1.675 20.8375H15.0625C15.1125 21.15 15.2 21.4625 15.3125 21.75L3.7125 28.4375C3.5 28.0125 3.28751 27.575 3.10001 27.1375ZM3.7125 11.5625L15.3125 18.25C15.2 18.5375 15.125 18.85 15.0625 19.1625H1.675C1.775 16.975 2.25001 14.8625 3.10001 12.8625C3.28751 12.425 3.5 11.9875 3.7125 11.5625ZM24.925 19.1625C24.875 18.85 24.7875 18.5375 24.6875 18.25L36.275 11.5625C36.5 11.9875 36.7 12.425 36.8875 12.8625C37.7375 14.8625 38.2125 16.9875 38.3125 19.1625H24.925ZM35.45 10.125L23.85 16.825C23.65 16.5875 23.425 16.3625 23.1875 16.1625L29.8875 4.56249C31 5.27499 32.025 6.1 32.975 7.05C33.9 7.975 34.7375 9.01251 35.45 10.125ZM28.4375 3.72499L21.7375 15.3125C21.45 15.2 21.1375 15.125 20.825 15.075V1.68751C23.0125 1.78751 25.125 2.26251 27.125 3.11251C27.575 3.30001 28.0125 3.49999 28.4375 3.72499ZM19.1625 1.68751V15.075C18.85 15.125 18.5375 15.2125 18.25 15.3125L11.5625 3.72499C11.9875 3.49999 12.425 3.30001 12.8625 3.11251C14.8625 2.26251 16.9875 1.78751 19.1625 1.68751ZM7.03751 7.03751C7.97501 6.10001 9.01251 5.2625 10.125 4.55L16.825 16.15C16.5875 16.35 16.3625 16.575 16.1625 16.8125L4.56249 10.1125C5.26249 9.0125 6.08751 7.97501 7.03751 7.03751ZM4.55002 29.875L16.15 23.175C16.35 23.4125 16.575 23.6375 16.8125 23.8375L10.1125 35.4375C9 34.725 7.97499 33.9 7.02499 32.95C6.08749 32.025 5.26252 30.9875 4.55002 29.875ZM11.5625 36.275L18.25 24.6875C18.5375 24.8 18.85 24.875 19.1625 24.925V38.3125C16.975 38.2125 14.8625 37.7375 12.8625 36.8875C12.425 36.7 11.9875 36.5 11.5625 36.275ZM20.8375 38.3125V24.925C21.15 24.875 21.4625 24.7875 21.75 24.6875L28.45 36.275C28.025 36.5 27.5875 36.7 27.15 36.8875C25.125 37.7375 23.0125 38.2125 20.8375 38.3125ZM32.9625 32.9625C32.025 33.9 30.9875 34.7375 29.875 35.45L23.175 23.85C23.4125 23.65 23.6375 23.425 23.8375 23.1875L35.4375 29.8875C34.7375 30.9875 33.9 32.025 32.9625 32.9625Z" />
<path d="M20 19.1626C19.5375 19.1626 19.1624 19.5376 19.1624 20.0001C19.1624 20.4626 19.5375 20.8376 20 20.8376C20.4625 20.8376 20.8375 20.4626 20.8375 20.0001C20.8375 19.5376 20.4625 19.1626 20 19.1626Z" />
</svg>
